<svg width="427" height="122" viewBox="0 0 427 122" fill="none" xmlns="http://www.w3.org/2000/svg">
<path fill-rule="evenodd" clip-rule="evenodd" d="M128.338 77.8699L128.532 77.6597C129.366 78.4296 130.384 79.6177 132.467 80.8977C132.61 80.9859 132.761 80.9654 132.912 80.8939C133.051 80.8281 133.19 80.7227 133.329 80.5964C133.934 80.0439 134.513 79.1161 134.929 78.7309C136.854 76.945 139.257 75.2664 141.561 74.0097C151.937 68.3502 167.116 67.1035 174.039 78.9802C175.264 81.0808 176.085 83.3596 176.533 85.7458C179.616 102.171 162.235 111.959 147.833 108.716C143.747 107.796 139.616 105.664 136.282 103.17C135.573 102.639 134.648 101.667 133.661 101.121C133.074 100.797 132.466 100.622 131.873 100.86C131.259 101.106 130.677 101.613 130.128 102.204C129.259 103.138 128.478 104.285 127.814 105.055C125.25 108.024 122.669 111.198 119.783 113.86C119.556 114.069 119.351 114.297 119.112 114.474C109.043 121.948 103.984 123.077 92.4379 121.138C88.223 120.429 85.4225 119.095 81.6348 117.239C77.6101 115.267 72.9604 109.768 70.3659 104.984C69.9903 104.393 69.668 103.739 69.3996 103.022C68.9667 102.034 68.6501 101.109 68.4747 100.29L55.7327 62.9396H27.126L14.6471 96.372C14.1389 97.7955 13.6302 99.1686 13.122 100.491C12.6081 101.826 12.0169 103.059 11.349 104.19C10.6682 105.342 9.88156 106.257 8.99099 106.938C8.07707 107.637 7.02918 107.987 5.84637 107.987C3.72103 107.987 2.07769 107.314 0.908706 105.986C0.426715 105.437 0.131132 104.704 0.0348288 103.779C-0.102474 102.463 0.165457 100.744 0.851496 98.6236C0.851972 98.6222 0.852449 98.6208 0.852926 98.6189L32.8479 5.52884C33.3747 3.84592 34.2977 2.50531 35.613 1.50558C36.9274 0.506315 38.6342 0 40.7376 0C42.9411 0 44.7227 0.505829 46.0867 1.50223C47.4554 2.50292 48.4046 3.84449 48.9319 5.52884C48.9319 5.52884 80.0634 95.9734 80.0644 95.9748C82.8491 101.315 86.695 106.716 92.3378 108.476C98.6594 110.447 102.876 110.702 106.446 109.32C110.026 107.935 112.947 104.917 116.687 100.402C117.755 99.1133 119.33 97.7164 120.708 96.2051C122.044 94.7405 123.199 93.1706 123.469 91.4743C123.6 90.6534 123.232 89.7461 122.693 88.8317C121.829 87.3657 120.513 85.8945 119.806 84.7384L120.049 84.5897L128.338 77.8699ZM54.4221 53.7789C54.5151 53.7789 54.6023 53.7337 54.6557 53.6574C54.7091 53.5816 54.7225 53.4838 54.691 53.3966L41.159 15.7298C41.1175 15.6158 41.0088 15.54 40.8873 15.541C40.7662 15.5419 40.6584 15.6197 40.6193 15.7345L27.8287 53.4014C27.7991 53.4886 27.8134 53.5844 27.8668 53.6593C27.9207 53.7346 28.007 53.7789 28.099 53.7789H54.4221ZM153.316 81.292C148.759 82.0948 145.243 84.0371 141.777 87.0773C141.1 87.6723 140.156 88.4766 139.487 89.3757C139.014 90.0112 138.679 90.6963 138.638 91.3876C138.592 92.1699 138.887 92.8874 139.353 93.5339C140.007 94.4421 141 95.2092 141.748 95.8289C145.546 98.9759 150.485 100.154 155.326 99.2267C158.929 98.5369 162.294 96.8401 163.915 93.3918C167.184 86.437 160.11 80.0944 153.316 81.292Z" fill="#F97316"/>
<path d="M113.245 58.8667C113.35 59.0606 113.471 59.2663 113.604 59.485C114.485 60.9709 115.846 62.8153 117.444 64.8149C123.897 72.8744 134.169 83.3156 134.169 83.3156C134.672 83.827 134.886 84.5558 134.741 85.2565C134.592 85.9583 134.105 86.539 133.437 86.8058L125.732 89.8857C124.863 90.2337 123.872 89.9774 123.281 89.2533L99.833 60.5736V87.8979C99.833 87.9272 99.833 87.9566 99.829 87.986C99.6156 93.276 95.063 95.4989 91.6535 94.5009C89.355 93.8285 87.2982 91.7513 87.4149 87.865V22.4683C87.4149 21.2857 88.3729 20.3277 89.5563 20.3277H103.746C111.539 20.3277 116.892 20.6721 119.815 21.3163C122.959 22.0087 125.676 23.1901 127.978 24.8394C130.341 26.5287 132.201 28.7046 133.561 31.3743C134.91 34.0204 135.59 36.9498 135.59 40.1661C135.59 46.2801 133.36 51.1575 128.952 54.8193C127.813 55.7644 126.038 56.4933 123.965 57.0046C121.336 57.6535 118.193 58.0061 115.641 58.3835C114.823 58.5034 113.918 58.7044 113.245 58.8667ZM99.833 48.3937H108.761C108.761 48.3937 108.773 48.3937 108.781 48.3949C113.805 48.4478 117.533 47.8295 119.932 46.3459C121.956 45.094 122.89 43.0544 122.89 40.3001C122.89 37.5423 121.984 35.4968 120.008 34.2425C117.669 32.7613 114.002 32.1172 109.043 32.1172H99.833V48.3937Z" fill="#F97316"/>
<path d="M165.422 58.3418C164.839 61.2691 161.908 63.0597 158.865 63.1232C155.721 63.1887 152.791 61.4648 152.368 58.2512C152.356 58.144 152.348 58.0357 152.352 57.9264L153.097 25.2315C153.101 25.0555 153.125 24.8827 153.173 24.7141C153.93 21.9856 156.51 20.4084 159.191 20.3533C161.872 20.2991 164.529 21.741 165.378 24.6943C165.434 24.8848 165.463 25.0815 165.463 25.2793V57.9296C165.463 58.068 165.447 58.2054 165.422 58.3418Z" fill="#F97316"/>
<path d="M235.243 90.9512C236.725 95.1722 235.143 97.7413 233.038 98.7191C232.035 99.1831 230.812 99.3219 229.507 99.03C227.136 98.502 224.315 96.4478 222.68 92.4488C221.388 89.2733 214.674 75.7407 212.641 71.6586H186.71L176.691 92.5651C176.24 93.5097 175.161 93.9808 174.163 93.671L167.481 91.6087C166.901 91.4307 166.426 91.0106 166.177 90.4588C165.927 89.9058 165.927 89.2721 166.177 88.7192C166.177 88.7192 191.162 33.2751 196.439 22.0826C196.596 21.7551 196.93 21.2947 197.534 20.9459C198.074 20.6326 198.983 20.3478 199.788 20.3525C200.666 20.3585 201.761 20.8307 202.216 21.144C202.695 21.4727 202.92 21.8429 203.017 22.0316C208.825 33.5172 231.218 79.4668 235.243 90.9512ZM210.262 61.6943L199.76 39.4078L189.165 61.6943H210.262Z" fill="#F97316"/>
<path d="M289.11 70.5048C289.195 70.2839 289.271 70.0409 289.34 69.7797C290.089 67.0402 290.193 62.633 290.012 57.74C289.545 44.9752 286.989 29.0204 286.989 29.0204C286.969 28.9069 286.961 28.7921 286.961 28.6774C286.985 22.3829 290.298 20.1524 293.007 20.3697C295.603 20.5797 298.731 23.2936 299.222 28.4869C299.23 28.5553 299.23 28.6236 299.23 28.692L299.029 91.4186C299.029 91.6152 299.001 91.8105 298.948 91.9985C298.502 93.5428 297.62 94.1764 296.827 94.4145C295.909 94.6879 294.46 94.4231 292.955 92.8995C292.882 92.8287 292.818 92.7529 292.757 92.6724C292.757 92.6724 274.913 68.6236 261.71 54.1948C258.397 50.5751 255.39 47.5695 253.047 45.7492C252.359 45.2145 251.739 44.7896 251.196 44.504C251.047 44.4246 250.914 44.3465 250.797 44.2952C250.652 44.5723 250.359 45.1669 250.222 45.6699C249.743 47.4315 249.521 49.9195 249.449 52.8189C249.095 67.1757 252.653 91.1012 252.653 91.1012C252.669 91.2245 252.677 91.3502 252.673 91.4747C252.54 95.9808 249.666 98.2527 246.869 98.3687C244.163 98.481 241.004 96.5778 240.154 91.7812C240.13 91.6591 240.122 91.5358 240.122 91.4112V23.462C240.122 23.2764 240.146 23.0922 240.195 22.9127C240.593 21.4258 241.462 20.7872 242.324 20.5455C243.218 20.294 244.626 20.5345 246.124 21.9006C246.176 21.9519 246.233 22.0056 246.281 22.063C246.281 22.063 281.716 62.2057 289.11 70.5048Z" fill="#F97316"/>
<path d="M356.015 70.5048C356.1 70.2839 356.176 70.0409 356.245 69.7797C356.993 67.0402 357.098 62.633 356.917 57.74C356.45 44.9752 353.894 29.0204 353.894 29.0204C353.874 28.9069 353.866 28.7921 353.866 28.6774C353.89 22.3829 357.203 20.1524 359.912 20.3697C362.508 20.5797 365.636 23.2936 366.127 28.4869C366.135 28.5553 366.135 28.6236 366.135 28.692L365.934 91.4186C365.934 91.6152 365.906 91.8105 365.853 91.9985C365.406 93.5428 364.525 94.1764 363.732 94.4145C362.814 94.6879 361.365 94.4231 359.859 92.8995C359.787 92.8287 359.723 92.7529 359.662 92.6724C359.662 92.6724 341.818 68.6236 328.615 54.1948C325.302 50.5751 322.295 47.5695 319.952 45.7492C319.264 45.2145 318.644 44.7896 318.101 44.504C317.952 44.4246 317.819 44.3465 317.702 44.2952C317.557 44.5723 317.263 45.1669 317.126 45.6699C316.647 47.4315 316.426 49.9195 316.354 52.8189C315.999 67.1757 319.558 91.1012 319.558 91.1012C319.574 91.2245 319.582 91.3502 319.578 91.4747C319.445 95.9808 316.571 98.2527 313.773 98.3687C311.068 98.481 307.908 96.5778 307.059 91.7812C307.035 91.6591 307.027 91.5358 307.027 91.4112V23.462C307.027 23.2764 307.051 23.0922 307.099 22.9127C307.498 21.4258 308.367 20.7872 309.229 20.5455C310.122 20.294 311.531 20.5345 313.029 21.9006C313.081 21.9519 313.137 22.0056 313.186 22.063C313.186 22.063 348.621 62.2057 356.015 70.5048Z" fill="#F97316"/>
<path d="M417.897 33.0242C417.897 33.0242 404.645 31.5134 395.069 31.6638C392.714 31.7018 390.589 31.8352 388.975 32.1348C388.173 32.2826 387.53 32.4356 387.123 32.6972C386.475 33.1197 386.189 33.9398 385.98 34.8868C385.674 36.272 385.654 37.9305 385.766 39.6374C386.024 43.4856 387.002 47.5653 387.57 49.6947H417.852C417.864 49.6947 417.877 49.6947 417.885 49.6947C422.787 49.7705 425.154 53.0968 425.199 56.1353C425.243 59.2497 422.949 62.5498 417.744 62.2764C417.7 62.2738 417.655 62.2698 417.611 62.2646C417.611 62.2646 404.042 60.7028 394.594 60.8584C392.288 60.8964 390.239 61.0324 388.737 61.3385C388.105 61.4667 387.602 61.5596 387.328 61.7859C386.817 62.2162 386.523 62.9395 386.282 63.7975C385.952 64.9852 385.795 66.4096 385.742 67.9492C385.553 73.9006 386.978 81.4438 387.67 84.7034C387.67 84.7034 417.836 84.7034 417.82 84.7047C423.576 84.5922 426.205 87.9616 426.241 90.919C426.278 93.8607 423.754 97.3151 417.881 97.387C417.873 97.387 417.864 97.387 417.852 97.387H377.837C376.669 97.387 375.723 96.44 375.723 95.272V22.4699C375.723 21.3018 376.669 20.3548 377.837 20.3548C377.837 20.3548 418.13 20.3548 418.114 20.3548C420.541 20.3274 422.598 21.8263 423.729 23.8838C424.857 25.9282 424.989 28.4435 423.939 30.2773C423.021 31.8836 421.209 33.1811 418.042 33.0359C417.993 33.0333 417.945 33.0307 417.897 33.0242Z" fill="#F97316"/>
</svg>
