<svg width="450" height="94" viewBox="0 0 450 94" fill="none" xmlns="http://www.w3.org/2000/svg">
<path fill-rule="evenodd" clip-rule="evenodd" d="M34.8379 36.2039C35.1102 35.8316 35.5806 35.6572 36.0231 35.7876C47.8474 39.2746 59.5613 52.8761 59.5613 65.6517C59.5613 81.1199 47 93.6829 31.5284 93.6829C16.0568 93.6829 3.49634 81.1199 3.49634 65.6517C3.49634 60.0499 5.14306 54.8298 7.97781 50.4492C7.98609 50.4364 7.97729 50.4195 7.96207 50.4189V50.4189C7.94762 50.4183 7.93381 50.4122 7.94054 50.3994C8.27183 49.769 13.6138 39.5098 15.6968 35.5043C16.1276 34.6759 16.9714 33.1937 17.4651 32.4012C18.6409 30.5139 20.6223 27.3355 21.6855 25.6419C22.0946 24.9903 22.7324 24.0093 23.1594 23.3692C24.7414 20.9977 26.3758 18.6628 28.0561 16.3738C28.4125 15.8893 28.7748 15.3972 29.143 14.901C33.4318 9.12671 38.6196 2.82076 46.5391 0.718502C58.5729 -2.4749 69.8509 5.45724 72.9761 15.013C77.5237 28.9142 80.9399 81.7052 81.5473 91.5994C81.6007 92.4685 80.9031 93.1925 80.0325 93.1806L71.9441 93.0701C71.1559 93.0593 70.5111 92.456 70.4649 91.6691C69.934 82.619 66.7903 31.7694 62.4362 18.46C60.8951 13.7475 55.3188 9.86227 49.3837 11.4371C43.3819 13.0296 40.1379 18.658 36.9942 22.9384C35.4926 24.9828 34.0305 27.0669 32.6123 29.1825C32.1529 29.8678 31.4461 30.9938 31.0161 31.6979C29.8066 33.6786 27.5774 37.3098 27.3546 37.6728C27.3413 37.6944 27.3293 37.7127 27.315 37.7336C26.9506 38.2649 26.5893 38.7986 26.231 39.3346C25.7971 39.9836 25.1444 40.9884 24.7296 41.6497C23.3618 43.8301 20.5544 48.3398 20.3657 48.6431C20.3576 48.656 20.3568 48.6575 20.3484 48.6702C20.0832 49.0704 12.6982 60.2633 12.6982 65.6517C12.6982 76.0442 21.1359 84.4818 31.5284 84.4818C41.9209 84.4818 50.3585 76.0442 50.3585 65.6517C50.3585 56.5648 41.7768 45.4881 32.8422 43.125C31.7338 42.8318 31.1005 41.5174 31.7466 40.5703C32.7531 39.0947 33.7843 37.6383 34.8379 36.2039V36.2039Z" fill="#F97316"/>
<path fill-rule="evenodd" clip-rule="evenodd" d="M12.5988 32.1427C12.2373 32.6254 11.6225 32.8417 11.0337 32.712C10.5515 32.6058 10.0681 32.5097 9.58642 32.4258C8.17565 32.1794 6.08749 32.2395 4.87304 32.3052C4.27995 32.3372 3.71555 32.0353 3.43105 31.5139C2.66902 30.1174 1.17203 27.3582 0.433317 25.8892C0.148101 25.322 0.397725 24.7794 1.0108 24.6145C4.02089 23.8047 7.78234 23.8263 11.6281 24.4972C12.8315 24.7069 14.0442 24.976 15.2365 25.2849C16.2451 25.5463 16.6404 26.7469 16.0158 27.5808L12.5988 32.1427Z" fill="#F97316"/>
<path d="M119.26 16C127.533 16 134.501 19.0181 140.164 24.9655H140.173C145.25 30.4689 147.78 36.7716 147.78 44.0504C147.78 52.1281 144.762 58.9625 138.717 64.5547H138.691C135.948 66.9514 132.903 68.8156 129.574 70.1471L147.452 91.0957C147.798 91.4508 147.878 92.0724 147.656 92.5163C147.434 93.0489 146.955 93.3148 146.422 93.3148H136.622C136.223 93.3148 135.841 93.138 135.584 92.8717L117.777 72.0108H105.173V91.9831C105.173 92.6933 104.56 93.3148 103.815 93.3148H96.3581C95.6036 93.3148 95 92.6933 95 91.9831V17.4206C95 16.6217 95.6036 16 96.3581 16H119.26ZM105.173 26.2083V61.8924H112.017H120.192C125.997 61.6261 130.613 59.1401 134.039 54.613C136.418 51.4174 137.608 47.9561 137.608 44.0504C137.608 38.4581 135.397 33.8418 130.977 30.2912C127.533 27.5395 123.627 26.2083 119.26 26.2083H105.173Z" fill="#F97316"/>
<path d="M157.074 16H164.53C165.276 16 165.888 16.6217 165.888 17.4206V91.9831C165.888 92.6933 165.276 93.3148 164.53 93.3148H157.074C156.319 93.3148 155.716 92.6933 155.716 91.9831V17.4206C155.716 16.6217 156.319 16 157.074 16Z" fill="#F97316"/>
<path d="M202.984 16H203.41C203.419 16 203.428 16.0889 203.436 16.0889C206.561 16.0889 209.57 16.6218 212.464 17.5983C212.473 17.5983 212.473 17.5983 212.473 17.5983C219.92 20.1725 225.468 24.9658 229.116 31.9783C231.282 36.2391 232.356 40.7652 232.356 45.381V91.9832C232.356 92.6933 231.744 93.3149 230.998 93.3149H223.542C222.787 93.3149 222.184 92.6933 222.184 91.9832C222.184 91.9832 222.184 86.4797 222.175 86.4797C216.973 91.0955 210.795 93.4039 203.649 93.5814C203.641 93.5814 203.632 93.5814 203.623 93.5814H201.706C201.679 93.5814 201.652 93.5814 201.634 93.5814C193.361 93.1376 186.509 89.6755 181.076 83.3731C181.067 83.3731 181.067 83.3731 181.059 83.3731C176.008 77.337 173.629 70.5026 173.931 62.8687C174.303 54.4359 177.685 47.4236 184.094 41.9201C189.527 37.2155 195.776 34.8183 202.851 34.7295C202.859 34.7295 202.868 34.7295 202.877 34.7295C203.419 34.7295 203.933 34.7296 204.395 34.8184C211.106 35.1734 216.911 37.3927 221.802 41.5647C220.977 37.2151 218.784 33.5759 215.216 30.6466C213.352 29.1376 211.328 27.9835 209.135 27.1846C203.445 25.3205 198.057 25.9417 192.953 29.2261C191.027 30.4688 189.367 31.9779 187.973 33.7532C187.512 34.3746 186.677 34.4636 186.083 34.0198L180.118 29.5815C179.514 29.1376 179.39 28.2491 179.842 27.6278C184.76 21.1479 191.275 17.3318 199.398 16.2666C199.406 16.2666 199.406 16.2666 199.415 16.2666C200.676 16.089 201.865 16 202.984 16ZM222.184 64.9102C222.379 58.7853 220.231 53.726 215.713 49.7315C212.331 46.8022 208.39 45.2041 203.88 44.9378C203.809 44.9378 203.738 44.9378 203.676 44.9378C203.41 44.849 203.143 44.849 202.886 44.849C196.992 44.9377 192.199 47.2459 188.488 51.773C185.763 55.2348 184.298 59.0511 184.103 63.3119C183.837 69.348 185.923 74.3195 190.37 78.4028C193.752 81.4208 197.693 83.1068 202.211 83.3731C208.159 83.6394 213.121 81.5983 217.097 77.2488C220.142 73.7869 221.838 69.7926 222.184 65.1767V64.9102Z" fill="#F97316"/>
<path d="M243.568 16H251.024C251.77 16 252.382 16.6217 252.382 17.4206V22.1243C257.477 18.1299 263.407 16.0888 270.18 16C270.189 16 270.189 16 270.197 16C278.39 16 285.288 18.9291 290.88 24.6989C290.88 24.6989 290.88 24.6989 290.889 24.6989C295.753 29.7586 298.185 35.706 298.185 42.541V91.9831C298.185 92.6933 297.573 93.3148 296.827 93.3148H289.371C288.616 93.3148 288.013 92.6933 288.013 91.9831V42.541C288.013 37.3925 285.838 33.2202 281.524 30.0246C278.213 27.4504 274.432 26.2083 270.197 26.2083C264.374 26.2083 259.679 28.3384 256.11 32.5992C253.625 35.5285 252.382 38.8128 252.382 42.541V91.9831C252.382 92.6933 251.77 93.3148 251.024 93.3148H243.568C242.813 93.3148 242.209 92.6933 242.209 91.9831V17.4206C242.209 16.6217 242.813 16 243.568 16Z" fill="#F97316"/>
<path d="M309.609 16H317.066C317.811 16 318.424 16.6217 318.424 17.4206V22.1243C323.519 18.1299 329.449 16.0888 336.221 16C336.23 16 336.23 16 336.239 16C344.432 16 351.329 18.9291 356.922 24.6989C356.922 24.6989 356.922 24.6989 356.931 24.6989C361.795 29.7586 364.227 35.706 364.227 42.541V91.9831C364.227 92.6933 363.615 93.3148 362.869 93.3148H355.413C354.658 93.3148 354.055 92.6933 354.055 91.9831V42.541C354.055 37.3925 351.88 33.2202 347.566 30.0246C344.255 27.4504 340.473 26.2083 336.239 26.2083C330.416 26.2083 325.72 28.3384 322.152 32.5992C319.667 35.5285 318.424 38.8128 318.424 42.541V91.9831C318.424 92.6933 317.811 93.3148 317.066 93.3148H309.609C308.855 93.3148 308.251 92.6933 308.251 91.9831V17.4206C308.251 16.6217 308.855 16 309.609 16Z" fill="#F97316"/>
<path d="M449.123 57.6307V57.8084C449.123 59.0512 447.765 59.1402 447.765 59.1402H382.735C383.809 66.2414 387.129 72.0998 392.712 76.7156C394.408 78.1359 396.201 79.3789 398.091 80.3554H398.1C405.415 84.0835 412.898 84.5276 420.549 81.6871C426.239 79.4679 430.784 75.9175 434.175 70.8579C434.592 70.2365 435.435 70.0586 436.057 70.5025L442.235 74.6742C442.856 75.118 443.025 75.9166 442.608 76.5379C437.086 84.7932 429.47 90.1195 419.75 92.4274C410.625 94.6466 401.864 93.6705 393.467 89.4985L393.458 89.4097C384.847 85.0601 378.705 78.3137 375.03 69.2596H375.021C371.488 60.2942 371.275 51.2396 374.364 42.0967C377.604 32.865 383.489 25.7637 392.029 20.9703C397.914 17.686 404.145 16 410.696 16H411.442L411.477 16.0889C413.901 16.0889 416.244 16.3548 418.516 16.7986H418.534C428.325 18.8402 436.136 23.9885 441.951 32.1549C447.383 39.7888 449.771 48.3103 449.123 57.6307ZM410.59 26.2083C402.805 26.2083 396.13 29.0484 390.582 34.6406C387.599 37.7475 385.398 41.3866 383.969 45.4698C383.596 46.6238 383.285 47.7779 383.037 48.9318H438.471C437.086 42.0081 433.553 36.4166 427.872 31.9783C424.419 29.4041 420.62 27.7169 416.484 26.8292C414.522 26.4741 412.551 26.2083 410.59 26.2083Z" fill="#F97316"/>
</svg>
