<svg width="228" height="103" viewBox="0 0 228 103" fill="none" xmlns="http://www.w3.org/2000/svg">
<path d="M115.913 49.1091H138.66V58.2587H106.164V9.66418H137.848V18.8138H115.913V49.1091ZM114.898 28.98H135.005V37.9262H114.898V28.98Z" fill="#A3E635"/>
<path d="M160.189 58.2587C156.736 58.2587 153.487 57.6487 150.034 56.6321C146.987 55.6154 144.144 54.1922 142.519 52.5656L145.972 44.2293C147.597 45.8559 149.831 47.0758 152.471 47.8891C154.908 48.9057 157.548 49.5157 160.392 49.5157C162.423 49.5157 164.048 49.1091 165.266 48.9057C166.485 48.4991 167.5 47.8891 168.11 47.0758C168.719 46.4659 168.922 45.4492 168.922 44.6359C168.922 43.416 168.313 42.3994 167.5 41.5861C166.688 40.9761 165.266 40.3661 163.845 39.7561C162.423 39.1462 160.798 38.7395 158.767 38.5362C157.142 38.1296 155.111 37.5196 153.487 36.9096C151.862 36.2996 150.034 35.283 148.409 34.4697C146.987 33.4531 145.566 32.0298 144.753 30.4032C143.941 28.7766 143.332 26.7434 143.332 24.3035C143.332 21.457 143.941 19.0171 145.363 16.9838C146.784 14.9506 148.815 12.9174 151.252 11.6974C154.096 10.4775 157.345 9.46085 161.407 9.46085C164.251 9.46085 166.688 9.86749 169.531 10.6808C171.969 11.2908 174.609 12.5107 176.64 13.7307L173.593 22.0669C171.562 20.847 169.734 19.8304 167.703 19.2204C165.672 18.6104 163.845 18.2038 161.814 18.2038C159.783 18.2038 158.158 18.6104 156.939 18.8138C155.721 19.4237 154.908 20.0337 154.502 20.6437C153.893 21.2536 153.69 22.4736 153.69 23.4902C153.69 24.7102 154.299 25.7268 155.111 26.5401C155.924 27.15 157.142 27.76 158.767 28.37C160.392 28.98 161.814 29.3866 163.845 29.5899C165.469 29.9966 167.5 30.6066 169.125 31.2165C170.75 31.8265 172.578 32.8431 174 33.6564C175.421 34.673 176.843 35.893 177.655 37.7229C178.468 39.3495 179.077 41.3827 179.077 43.8226C179.077 46.6692 178.468 49.1091 177.046 51.1423C175.624 53.3789 173.593 55.2088 170.953 56.4287C167.703 57.6487 164.048 58.2587 160.189 58.2587Z" fill="#A3E635"/>
<path d="M203.246 58.2587C199.996 58.2587 196.95 57.6487 193.903 56.4287C191.06 55.2088 188.623 53.5822 186.389 51.1423C184.358 48.9057 182.733 46.0592 181.514 43.416C180.499 40.3661 179.889 37.1129 179.889 33.4531C179.889 29.7933 180.499 26.5401 181.514 23.4902C182.53 20.4404 184.358 17.7971 186.389 15.7639C188.623 13.5273 191.06 11.6974 193.903 10.4775C196.747 9.25753 199.996 8.64755 203.246 8.64755C207.105 8.64755 210.354 9.25753 213.401 10.8841C216.447 12.5107 218.884 14.3406 221.118 17.1872L214.822 23.6935C213.198 21.8636 211.573 20.6437 209.948 19.6271C207.917 18.6104 206.089 18.4071 203.855 18.4071C201.824 18.4071 199.996 18.8138 198.371 19.6271C196.747 20.237 195.325 21.457 193.903 22.6769C192.888 23.8969 191.669 25.7268 191.06 27.76C190.451 29.5899 190.044 31.8265 190.044 34.0631C190.044 36.2996 190.247 38.5362 191.06 40.3661C191.872 42.196 192.685 43.8226 193.903 45.4492C194.919 46.6692 196.747 47.8891 198.371 48.4991C199.996 49.1091 202.027 49.719 203.855 49.719C205.886 49.719 207.714 49.3124 209.745 48.4991C211.776 47.8891 213.401 46.6692 215.025 44.8393L220.509 52.9722C218.072 54.8021 215.635 56.4287 212.588 57.6487C209.339 58.0553 206.292 58.2587 203.246 58.2587ZM211.167 50.7357V32.6398H220.306V52.3623L211.167 50.7357Z" fill="#A3E635"/>
<path d="M114.695 102.177C112.054 102.177 109.82 101.567 107.992 100.55C106.164 99.5335 104.337 97.9069 103.321 95.8736C102.306 93.8404 101.696 91.1972 101.696 87.944V70.4581H110.633V86.724C110.633 89.3673 111.242 91.1972 112.257 92.4171C113.273 93.6371 114.898 94.247 116.929 94.247C118.147 94.247 119.569 94.0437 120.584 93.2304C121.6 92.6204 122.412 91.6038 123.225 90.3839C123.834 89.1639 124.24 87.5373 124.24 85.7074V70.2548H133.177V101.973H124.646V93.4337L126.271 96.077C125.256 98.1102 123.631 99.7368 121.6 100.957C119.163 101.567 117.132 102.177 114.695 102.177Z" fill="#A3E635"/>
<path d="M155.111 102.177C151.456 102.177 148.612 101.363 145.972 100.143C143.332 98.9235 141.301 96.6869 139.676 94.4504C138.051 92.0105 137.645 89.1639 137.645 86.3174C137.645 83.4709 138.457 80.6243 139.676 78.1844C140.894 75.7445 143.128 73.9146 145.363 72.4914C148.003 71.2714 150.643 70.4581 153.69 70.4581C156.736 70.4581 159.376 71.0681 161.814 72.2881C164.251 73.508 166.282 75.3379 167.5 77.7778C168.719 80.2177 169.531 83.0642 169.531 86.3174V88.7573H144.347V83.4709H164.657L161.204 85.0975C161.204 83.4709 161.001 82.0476 160.189 80.8277C159.579 79.6077 158.564 78.7944 157.548 77.9811C156.533 77.1678 154.908 76.9645 153.69 76.9645C152.065 76.9645 150.846 77.1678 149.425 77.9811C148.409 78.7944 147.394 79.6077 146.784 80.8277C146.175 82.0476 145.769 83.4709 145.769 85.0975V86.3174C145.769 88.1473 145.972 89.3673 146.784 90.7906C147.597 92.0105 148.612 93.2304 149.831 93.6371C151.049 94.4504 152.674 94.6537 154.705 94.6537C156.33 94.6537 157.752 94.4504 158.97 93.8404C160.189 93.2304 161.407 92.6205 162.423 91.4005L167.094 96.687C165.876 98.3135 164.048 99.5335 161.814 100.347C160.189 101.363 157.752 102.177 155.111 102.177Z" fill="#A3E635"/>
<path d="M187.607 102.177C184.967 102.177 182.327 101.973 180.092 101.16C177.655 100.347 175.624 99.9401 174.406 98.7202L177.249 92.4171C178.874 93.2304 180.296 94.0437 182.123 94.4503C183.951 94.857 185.982 95.2636 187.81 95.2636C189.841 95.2636 191.466 95.0603 192.278 94.4503C193.091 93.8404 193.497 93.2304 193.497 92.4171C193.497 91.6038 193.294 91.1972 192.481 90.7905C191.669 90.3839 190.857 90.1805 189.841 89.9772C188.826 89.7739 187.404 89.7739 186.185 89.3672C184.967 89.1639 183.545 88.7573 182.327 88.554C181.108 88.3506 179.686 87.7407 178.671 86.9274C177.655 86.3174 176.64 85.3008 176.03 84.2841C175.218 83.2675 175.015 81.6409 175.015 79.811C175.015 77.9811 175.624 76.1512 176.843 74.5246C178.061 72.898 179.686 71.8814 181.717 70.8647C183.748 70.0515 186.389 69.6448 189.232 69.6448C191.263 69.6448 193.497 69.8481 195.731 70.4581C197.762 71.0681 199.59 71.4747 201.215 72.4913L198.168 78.7944C196.543 77.9811 195.325 77.1678 193.7 76.9645C192.075 76.7611 190.857 76.3545 189.232 76.3545C187.201 76.3545 185.576 76.5578 184.764 77.1678C183.748 77.7778 183.545 78.3877 183.545 79.201C183.545 80.0143 183.748 80.421 184.561 81.031C185.373 81.6409 186.185 81.8443 187.201 81.8443C188.216 81.8443 189.638 82.0476 190.857 82.4542C192.075 82.6576 193.497 83.0642 194.716 83.2675C195.934 83.4708 197.356 84.0808 198.371 84.8941C199.387 85.5041 200.402 86.5207 201.012 87.5373C201.621 88.554 202.027 90.1805 202.027 92.0105C202.027 93.8404 201.418 95.6703 200.199 96.8902C198.981 98.1102 197.356 99.5335 195.325 100.347C193.294 101.973 190.451 102.177 187.607 102.177Z" fill="#A3E635"/>
<path d="M203.652 78.3878V71.6781H225.18V78.3878H203.652ZM220.103 102.177C216.447 102.177 213.604 101.16 211.573 99.3301C209.542 97.5002 208.526 94.6537 208.526 90.9939V63.7484H217.666V90.7905C217.666 92.0105 217.869 93.2304 218.681 93.8404C219.494 94.6537 220.306 94.857 221.322 94.857C222.946 94.857 223.962 94.6537 224.977 93.8404L227.415 100.143C226.602 100.753 225.384 101.16 224.368 101.77C222.743 102.177 221.322 102.177 220.103 102.177Z" fill="#A3E635"/>
<path d="M18.6288 75.1346C11.1141 65.7816 8.06766 53.3789 10.3017 41.5861C13.1451 23.4902 29.393 9.66418 47.4688 9.0542C72.6531 7.83426 92.5568 30.1999 88.6979 55.2088C87.8855 60.9019 85.8546 66.1883 82.8081 71.0681C82.605 71.4747 82.8081 71.4747 83.0112 71.8814C85.2453 73.9146 86.87 76.1512 88.6979 78.5911C102.712 60.0886 100.884 32.6398 84.8391 15.9672C73.2624 3.56445 54.9835 -2.12863 38.5325 1.93786C16.8009 6.61431 0.552996 27.1501 0.756095 49.3124C0.552996 61.7152 5.22427 73.9146 13.5513 83.0642C13.7544 83.2675 13.9575 83.2675 14.3637 83.2675C16.5978 82.0476 18.8319 81.2343 21.066 80.0143C21.4722 79.811 21.8784 79.4044 22.0815 78.7944" fill="#A3E635"/>
<path d="M95.6033 96.8903C86.0577 102.99 73.2624 103.397 63.1075 98.5168C54.1711 94.247 49.4998 85.7074 47.672 76.3545C47.672 76.1512 47.4689 75.7445 47.8751 75.5412C51.5308 73.508 55.3897 71.2714 59.4517 70.2548C67.7788 68.2216 74.6841 70.6614 80.574 76.5578C83.4174 79.4044 85.2453 82.6576 86.667 86.3174C88.901 90.5872 91.5413 94.247 95.6033 96.8903ZM78.9492 92.4171C77.3244 84.0808 68.7942 76.1512 59.8579 80.0143C59.5871 80.1499 59.4517 80.3532 59.4517 80.6243C61.6858 89.1639 70.8252 93.4337 78.9492 92.4171Z" fill="#A3E635"/>
<path d="M52.7494 98.1102C39.7511 98.9235 28.3776 95.2637 18.0195 87.334C20.6598 85.7074 23.3001 84.4875 25.5342 82.4543C25.7373 82.2509 25.9404 82.2509 26.1435 82.4543C31.8302 86.3174 38.5325 88.7573 45.4379 89.1639C46.0472 89.1639 46.4534 89.3673 46.6565 89.9772C48.2812 93.0271 50.1091 95.8736 52.7494 98.1102C52.7494 97.9747 52.7494 97.9747 52.7494 98.1102Z" fill="#A3E635"/>
</svg>
