<svg width="300" height="100" viewBox="0 0 300 100" fill="none" xmlns="http://www.w3.org/2000/svg">
<path d="M145.128 81.9208C139.975 81.9208 135.31 80.7065 131.133 78.2777C126.987 75.8193 123.684 72.2354 121.226 67.5259C118.767 62.8165 117.538 57.0852 117.538 50.332C117.538 43.6677 118.782 37.9512 121.27 33.1825C123.788 28.3842 127.164 24.7115 131.4 22.1642C135.636 19.5874 140.345 18.2989 145.528 18.2989C149.349 18.2989 152.755 19.069 155.747 20.6092C158.738 22.1494 161.197 23.9562 163.122 26.0295L157.524 32.4717C155.954 30.9315 154.207 29.7023 152.281 28.7841C150.356 27.8659 148.194 27.4068 145.795 27.4068C142.359 27.4068 139.323 28.325 136.687 30.1614C134.08 31.9978 132.037 34.6043 130.556 37.9808C129.075 41.3574 128.334 45.3708 128.334 50.021C128.334 57.1296 129.875 62.7128 132.955 66.7707C136.065 70.8285 140.241 72.8574 145.484 72.8574C148.238 72.8574 150.697 72.3391 152.859 71.3024C155.021 70.2361 156.991 68.7255 158.768 66.7707L164.366 72.9907C159.212 78.9441 152.8 81.9208 145.128 81.9208Z" fill="#4F46E5"/>
<path d="M186.845 81.9208C182.847 81.9208 179.574 80.7065 177.026 78.2777C174.509 75.8193 173.25 72.576 173.25 68.5478C173.25 63.6014 175.412 59.7805 179.737 57.0852C184.061 54.3602 190.977 52.4794 200.485 51.4427C200.426 48.9251 199.789 46.7333 198.574 44.8673C197.36 42.9717 195.153 42.0239 191.955 42.0239C189.615 42.0239 187.349 42.4681 185.157 43.3567C182.965 44.2157 180.877 45.2523 178.892 46.4667L175.072 39.7136C177.53 38.1141 180.359 36.7072 183.557 35.4928C186.756 34.2784 190.192 33.6713 193.865 33.6713C199.581 33.6713 203.832 35.3892 206.616 38.825C209.43 42.2608 210.837 47.148 210.837 53.4865V80.8101H202.306L201.551 75.6564H201.24C199.167 77.4335 196.931 78.9293 194.531 80.1437C192.132 81.3285 189.57 81.9208 186.845 81.9208ZM190.133 73.7904C192.029 73.7904 193.776 73.3609 195.376 72.502C197.005 71.6134 198.708 70.3398 200.485 68.6811V57.9293C193.998 58.7883 189.496 60.0323 186.979 61.6613C184.491 63.2904 183.246 65.3045 183.246 67.7037C183.246 69.8362 183.883 71.3912 185.157 72.3687C186.46 73.3165 188.119 73.7904 190.133 73.7904Z" fill="#4F46E5"/>
<path d="M225.807 80.8101V34.8264H234.338L235.182 43.0013H235.404C237.063 40.0394 239.032 37.7439 241.313 36.1148C243.623 34.4858 246.022 33.6713 248.51 33.6713C249.636 33.6713 250.599 33.7601 251.398 33.9378C252.198 34.0859 252.953 34.3081 253.664 34.6043L251.532 43.4456C250.821 43.2679 250.154 43.1346 249.532 43.0457C248.91 42.9272 248.111 42.868 247.133 42.868C245.297 42.868 243.357 43.5937 241.313 45.045C239.299 46.4963 237.596 48.9992 236.204 52.5535V80.8101H225.807Z" fill="#4F46E5"/>
<path d="M281.786 81.9208C277.58 81.9208 273.774 80.973 270.368 79.0774C266.961 77.1522 264.251 74.3976 262.237 70.8137C260.223 67.2297 259.216 62.9054 259.216 57.8405C259.216 52.8645 260.223 48.5697 262.237 44.9562C264.281 41.3426 266.917 38.5584 270.145 36.6036C273.374 34.6487 276.78 33.6713 280.364 33.6713C286.495 33.6713 291.175 35.7002 294.404 39.758C297.632 43.7862 299.246 49.0436 299.246 55.5302C299.246 56.5076 299.202 57.4554 299.113 58.3736C299.024 59.2918 298.92 60.0471 298.802 60.6395H269.346C269.76 64.8158 271.212 68.0739 273.7 70.4138C276.188 72.7537 279.327 73.9237 283.119 73.9237C285.162 73.9237 287.073 73.6423 288.85 73.0795C290.657 72.5168 292.404 71.717 294.093 70.6804L297.514 76.9893C295.322 78.5295 292.893 79.7438 290.227 80.6324C287.562 81.4914 284.748 81.9208 281.786 81.9208ZM269.212 53.5753H290.272C290.272 49.8433 289.457 46.9406 287.828 44.8673C286.199 42.7643 283.785 41.7129 280.586 41.7129C277.802 41.7129 275.329 42.7347 273.167 44.7784C271.004 46.8222 269.686 49.7545 269.212 53.5753Z" fill="#4F46E5"/>
<path fill-rule="evenodd" clip-rule="evenodd" d="M111 0H0V100H111V0ZM14 21V82.356H23.3745V53.433C23.3745 51.567 23.3004 49.4196 23.1523 46.9908C23.0042 44.5324 22.8265 42.074 22.6192 39.6156C22.4415 37.1572 22.2637 34.9802 22.086 33.0846H22.4859L27.373 48.3237L37.6361 76.5359H43.9894L54.2968 48.3237L59.184 33.0846H59.5839C59.4061 34.9802 59.2136 37.1572 59.0063 39.6156C58.799 42.074 58.6212 44.5324 58.4731 46.9908C58.3547 49.4196 58.2954 51.567 58.2954 53.433V82.356H67.8476V21H55.9407L45.189 51.3892C44.5077 53.3737 43.8413 55.3878 43.1897 57.4315C42.5677 59.4753 41.916 61.5042 41.2348 63.5183H40.8794C40.1981 61.5042 39.5317 59.4753 38.8801 57.4315C38.2285 55.3878 37.562 53.3737 36.8808 51.3892L25.9069 21H14ZM84.551 36.3723V82.356H94.9473V36.3723H84.551Z" fill="#4F46E5"/>
</svg>
