<svg width="154" height="154" viewBox="0 0 154 154" fill="none" xmlns="http://www.w3.org/2000/svg">
<g clip-path="url(#clip0_8_53)">
<rect width="154" height="154" transform="matrix(-4.37114e-08 1 1 4.37114e-08 0 1.90735e-06)" fill="#4F46E5" fill-opacity="0.952941"/>
<path d="M19.1715 82.3226H9.61845L-18.2151 7.62939e-06H-8.77999L14.8078 70.4446L39.2211 7.62939e-06H47.7127L71.8901 70.6798L95.8316 7.62939e-06H104.559L76.7256 82.3226H67.2905L43.231 12.8188L19.1715 82.3226Z" fill="#A3E635"/>
<path d="M93.0736 93.5467L68.3885 118.232L86.2699 136.113C90.2823 140.126 94.4983 143.178 98.9177 145.272C103.395 147.307 107.844 148.383 112.263 148.499C116.799 148.616 121.19 147.772 125.435 145.97C129.738 144.225 133.721 141.521 137.385 137.858C141.048 134.194 143.752 130.211 145.497 125.908C147.299 121.663 148.113 117.301 147.939 112.824C147.881 108.346 146.805 103.898 144.712 99.4781C142.676 95.0005 139.652 90.7555 135.64 86.7431L111.042 62.1452L116.886 56.3011L141.833 81.2478C146.718 86.1325 150.41 91.337 152.911 96.8613C155.528 102.386 156.894 107.939 157.01 113.522C157.243 119.104 156.254 124.57 154.045 129.92C151.893 135.212 148.579 140.096 144.101 144.574C139.623 149.052 134.71 152.395 129.36 154.605C124.068 156.757 118.602 157.745 112.961 157.571C107.437 157.396 101.883 156.03 96.3009 153.471C90.8348 150.913 85.6593 147.191 80.7747 142.306L55.828 117.359L86.3572 86.8303L93.0736 93.5467Z" fill="#A3E635"/>
</g>
<defs>
<clipPath id="clip0_8_53">
<rect width="154" height="154" fill="white" transform="translate(154 7.62939e-06) rotate(90)"/>
</clipPath>
</defs>
</svg>
