<svg width="150" height="150" viewBox="0 0 150 150" fill="none" xmlns="http://www.w3.org/2000/svg">
<g clip-path="url(#clip0_61_10)">
<rect width="150" height="150" fill="#4F46E5"/>
<rect x="106.572" y="44.1006" width="16" height="16" transform="rotate(30 106.572 44.1006)" fill="#A3E635"/>
<rect x="122.16" y="53.1006" width="16" height="16" transform="rotate(30 122.16 53.1006)" fill="#A3E635"/>
<rect x="137.749" y="62.1006" width="16" height="16" transform="rotate(30 137.749 62.1006)" fill="#A3E635"/>
<rect x="97.5718" y="59.6891" width="16" height="16" transform="rotate(30 97.5718 59.6891)" fill="#A3E635"/>
<rect x="144.337" y="86.6891" width="16" height="16" transform="rotate(30 144.337 86.6891)" fill="#A3E635"/>
<rect x="88.5718" y="75.2776" width="16" height="16" transform="rotate(30 88.5718 75.2776)" fill="#A3E635"/>
<rect x="150.926" y="111.278" width="16" height="16" transform="rotate(30 150.926 111.278)" fill="#A3E635"/>
<rect x="79.5718" y="90.866" width="16" height="16" transform="rotate(30 79.5718 90.866)" fill="#A3E635"/>
<rect x="141.926" y="126.866" width="16" height="16" transform="rotate(30 141.926 126.866)" fill="#A3E635"/>
<rect x="70.5718" y="106.454" width="16" height="16" transform="rotate(30 70.5718 106.454)" fill="#A3E635"/>
<rect x="117.337" y="133.454" width="16" height="16" transform="rotate(30 117.337 133.454)" fill="#A3E635"/>
<rect x="61.5718" y="122.043" width="16" height="16" transform="rotate(30 61.5718 122.043)" fill="#A3E635"/>
<rect x="77.1603" y="131.043" width="16" height="16" transform="rotate(30 77.1603 131.043)" fill="#A3E635"/>
<rect x="92.7487" y="140.043" width="16" height="16" transform="rotate(30 92.7487 140.043)" fill="#A3E635"/>
<rect x="-3" y="-2" width="16" height="16" fill="#A3E635"/>
<rect x="33" y="-2" width="16" height="16" fill="#A3E635"/>
<rect x="69" y="-2" width="16" height="16" fill="#A3E635"/>
<rect x="-3" y="16" width="16" height="16" fill="#A3E635"/>
<rect x="33" y="16" width="16" height="16" fill="#A3E635"/>
<rect x="69" y="16" width="16" height="16" fill="#A3E635"/>
<rect x="-3" y="34" width="16" height="16" fill="#A3E635"/>
<rect x="33" y="34" width="16" height="16" fill="#A3E635"/>
<rect x="69" y="34" width="16" height="16" fill="#A3E635"/>
<rect x="-3" y="52" width="16" height="16" fill="#A3E635"/>
<rect x="33" y="52" width="16" height="16" fill="#A3E635"/>
<rect x="69" y="52" width="16" height="16" fill="#A3E635"/>
<rect x="15" y="70" width="16" height="16" fill="#A3E635"/>
<rect x="51" y="70" width="16" height="16" fill="#A3E635"/>
</g>
<defs>
<clipPath id="clip0_61_10">
<rect width="150" height="150" fill="white"/>
</clipPath>
</defs>
</svg>
