<?xml version="1.0" encoding="UTF-8"?>
<svg width="284px" height="64px" viewBox="0 0 284 64" version="1.1" xmlns="http://www.w3.org/2000/svg" xmlns:xlink="http://www.w3.org/1999/xlink">
    <title>DMD - LOGO</title>
    <defs>
        <polygon id="path-1" points="0 0 283.404 0 283.404 63.45 0 63.45"></polygon>
    </defs>
    <g id="Page-1" stroke="none" stroke-width="1" fill="none" fill-rule="evenodd">
        <g id="DMD---LOGO">
            <g id="Group-3">
                <mask id="mask-2" fill="white">
                    <use xlink:href="#path-1"></use>
                </mask>
                <g id="Clip-2"></g>
                <path d="M141.673,60.103 C73.103,60.103 17.512,47.398 17.512,31.727 C17.512,16.055 73.103,3.352 141.673,3.352 C210.244,3.352 265.836,16.055 265.836,31.727 C265.836,47.398 210.244,60.103 141.673,60.103 M141.673,0 C63.397,0 -0.06,14.208 -0.06,31.727 C-0.06,49.245 63.397,63.45 141.673,63.45 C219.949,63.45 283.404,49.245 283.404,31.727 C283.404,14.208 219.949,0 141.673,0" id="Fill-1" fill="#6A6A6A" mask="url(#mask-2)"></path>
            </g>
            <polyline id="Fill-4" fill="#6A6A6A" points="146.53 48.842 137.091 48.842 120.5 21.395 120.328 21.395 120.328 48.842 107.284 48.842 107.284 11.133 129.196 11.133 141.611 33.105 141.778 33.296 154.253 11.133 176.109 11.133 176.109 48.842 163.121 48.842 163.121 21.395 162.889 21.395 146.53 48.842"></polyline>
            <path d="M91.218,39.917 L91.218,20.198 L91.046,20.198 C73.806,20.198 59.668,24.149 59.041,24.552 C58.413,24.951 58.09,25.469 58.09,26.11 L58.09,37.76 C58.09,38.396 58.413,38.918 59.041,39.318 C59.668,39.719 60.67,39.917 62.04,39.917 L91.218,39.917 Z M90.475,48.842 L60.495,48.842 C55.538,48.842 51.858,47.971 49.458,46.228 C47.054,44.483 45.851,41.932 45.851,38.573 L45.851,25.149 C45.851,25.149 45.646,20.029 49.458,17.497 C53.69,14.687 82.828,11.133 104.261,11.133 L104.261,48.842 L90.475,48.842 L90.475,48.842 Z" id="Fill-5" fill="#6A6A6A"></path>
            <path d="M192.054,39.917 L221.057,39.917 C222.43,39.917 223.431,39.719 224.059,39.318 C224.686,38.918 225.008,38.396 225.008,37.76 L225.008,26.11 C225.008,25.469 224.686,24.951 224.059,24.552 C223.431,24.149 209.293,20.198 192.054,20.198 L191.881,20.198 L191.881,39.917 L192.054,39.917 Z M179.239,48.842 L178.842,48.842 L178.842,11.133 C200.272,11.133 229.387,14.721 233.641,17.497 C237.448,19.982 237.249,25.149 237.249,25.149 L237.249,38.573 C237.249,41.932 236.044,44.483 233.641,46.228 C231.243,47.971 227.564,48.842 222.606,48.842 L179.239,48.842 L179.239,48.842 Z" id="Fill-6" fill="#6A6A6A"></path>
        </g>
    </g>
</svg>