<svg xmlns="http://www.w3.org/2000/svg" width="148.769" height="80" viewBox="0 0 148.769 80"><g transform="translate(-765.014 -165.818)"><path d="M828.955,180.33h4.186v1.378h-2.484v1.449h2.332v1.378h-2.332v3.031h-1.7Z" transform="translate(26.544 6.024)" fill="#fff"/><path d="M832.541,180.33h4.186v1.378h-2.483v1.449h2.332v1.378h-2.332v1.653h2.6v1.378h-4.3Z" transform="translate(28.033 6.024)" fill="#fff"/><path d="M836.265,180.33h2.523c1.683,0,2.4.872,2.4,3.386,0,2.624-.335,3.851-2.576,3.851h-2.351Zm1.7,5.98h.456c.791,0,1.064-.314,1.064-2.484,0-1.763-.141-2.24-1.043-2.24h-.477Z" transform="translate(29.578 6.024)" fill="#fff"/><path d="M840.517,180.33H844.7v1.378h-2.484v1.449h2.331v1.378h-2.331v1.653h2.6v1.378h-4.3Z" transform="translate(31.343 6.024)" fill="#fff"/><path d="M844.24,180.33H847.1a1.736,1.736,0,0,1,1.947,1.885c0,1.054-.426,1.571-1.217,1.765V184c1.084.151,1.146.831,1.166,1.8.031,1.429.081,1.571.324,1.671v.092h-1.834a3.353,3.353,0,0,1-.184-1.47c0-1.257-.171-1.52-.709-1.52h-.648v2.99h-1.7Zm1.7,3.051h.527a.836.836,0,0,0,.872-.942c0-.548-.2-.913-.882-.913h-.516Z" transform="translate(32.889 6.024)" fill="#fff"/><path d="M849.978,180.33h2.128l1.8,7.237h-1.763l-.263-1.378h-1.733l-.253,1.378h-1.763Zm1.034,1.318h-.021l-.6,3.224h1.237Z" transform="translate(34.505 6.024)" fill="#fff"/><path d="M852.537,186.31l2.452-4.6h-2.26V180.33h4.216v1.2l-2.482,4.661h2.482v1.378h-4.408Z" transform="translate(36.333 6.024)" fill="#fff"/><rect width="1.702" height="7.237" transform="translate(894.27 186.354)" fill="#fff"/><path d="M860.893,187.75c-2.24,0-2.544-1.459-2.544-3.76s.3-3.76,2.544-3.76c2.412,0,2.544,1.753,2.544,3.76s-.133,3.76-2.544,3.76m-.01-1.135c.689,0,.791-.638.791-2.625s-.1-2.625-.791-2.625c-.669,0-.771.638-.771,2.625s.1,2.625.771,2.625" transform="translate(38.746 5.983)" fill="#fff"/><path d="M862.717,180.33h1.954l1.4,4.7h.02v-4.7h1.582v7.237h-1.926l-1.488-4.987h-.021v4.987h-1.52Z" transform="translate(40.559 6.024)" fill="#fff"/><path d="M867.1,180.33h4.186v1.378h-2.483v1.449h2.331v1.378h-2.331v1.653h2.6v1.378h-4.3Z" transform="translate(42.381 6.024)" fill="#fff"/><rect width="1.702" height="7.237" transform="translate(855.53 196.598)" fill="#fff"/><path d="M832.28,188.947h-1.521v-1.378H835.5v1.378h-1.521v5.859h-1.7Z" transform="translate(27.292 9.029)" fill="#fff"/><path d="M835.761,187.569h2.128l1.8,7.237h-1.763l-.265-1.378h-1.734l-.252,1.378h-1.765Zm1.033,1.317h-.02l-.6,3.224h1.237Z" transform="translate(28.603 9.029)" fill="#fff"/><path d="M838.527,187.569h1.7v5.859h2.464v1.378h-4.166Z" transform="translate(30.517 9.029)" fill="#fff"/><rect width="1.702" height="7.237" transform="translate(873.967 196.598)" fill="#fff"/><path d="M845.605,187.569h2.127l1.8,7.237h-1.763l-.264-1.378h-1.733l-.253,1.378H843.76Zm1.033,1.317h-.02l-.6,3.224h1.237Z" transform="translate(32.69 9.029)" fill="#fff"/><path d="M848.37,187.569h1.957l1.4,4.7h.021v-4.7h1.579v7.237H851.4l-1.49-4.987h-.02v4.987H848.37Z" transform="translate(34.604 9.029)" fill="#fff"/><path d="M854.245,187.569h2.128l1.8,7.237h-1.763l-.263-1.378h-1.734l-.252,1.378H852.4Zm1.034,1.317h-.02l-.6,3.224H855.9Z" transform="translate(36.277 9.029)" fill="#fff"/><path d="M830.433,199.877v.253c0,.548.151.962.74.962s.77-.446.77-.86c0-1.561-3.112-.689-3.112-3.4,0-1.155.618-2.128,2.372-2.128,1.7,0,2.311.862,2.311,1.977v.173h-1.642a1.5,1.5,0,0,0-.142-.761.54.54,0,0,0-.518-.253c-.424,0-.678.253-.678.781,0,1.51,3.112.75,3.112,3.3,0,1.642-.913,2.3-2.474,2.3-1.237,0-2.382-.375-2.382-1.886v-.466Z" transform="translate(26.476 11.993)" fill="#fff"/><path d="M832.943,194.808h2.635a1.974,1.974,0,0,1,2.138,2.2c0,1.3-.618,2.209-2.322,2.209h-.749v2.827h-1.7Zm1.7,3.152h.466c.679,0,.84-.426.84-.913,0-.557-.181-.982-.872-.982h-.435Z" transform="translate(28.199 12.035)" fill="#fff"/><path d="M839.5,202.228c-2.24,0-2.543-1.459-2.543-3.76s.3-3.76,2.543-3.76c2.413,0,2.544,1.753,2.544,3.76s-.131,3.76-2.544,3.76m-.01-1.135c.689,0,.791-.638.791-2.625s-.1-2.625-.791-2.625c-.669,0-.77.638-.77,2.625s.1,2.625.77,2.625" transform="translate(29.863 11.993)" fill="#fff"/><path d="M841.319,194.808h2.859a1.735,1.735,0,0,1,1.946,1.885c0,1.054-.426,1.571-1.217,1.765v.02c1.084.151,1.146.831,1.166,1.8.031,1.429.081,1.571.324,1.673v.091h-1.834a3.349,3.349,0,0,1-.184-1.47c0-1.257-.171-1.52-.708-1.52h-.65v2.99h-1.7Zm1.7,3.051h.528a.836.836,0,0,0,.87-.942c0-.548-.2-.913-.882-.913h-.517Z" transform="translate(31.676 12.035)" fill="#fff"/><path d="M846.634,196.187h-1.52v-1.378h4.744v1.378h-1.521v5.859h-1.7Z" transform="translate(33.252 12.035)" fill="#fff"/><rect width="1.702" height="7.237" transform="translate(855.53 217.087)" fill="#fff"/><path d="M831.088,202.047h1.957l1.4,4.7h.02v-4.7h1.582v7.237h-1.926l-1.492-4.987h-.02v4.987h-1.52Z" transform="translate(27.429 15.04)" fill="#fff"/><path d="M835.119,202.047h1.824l.862,5.6h.02l.872-5.6h1.824l-1.641,7.237H836.71Z" transform="translate(29.103 15.04)" fill="#fff"/><path d="M839.465,202.047h4.186v1.378h-2.484v1.449H843.5v1.378h-2.331v1.653h2.6v1.378h-4.3Z" transform="translate(30.906 15.04)" fill="#fff"/><path d="M843.188,202.047h2.857a1.736,1.736,0,0,1,1.947,1.885c0,1.054-.426,1.571-1.217,1.765v.02c1.084.151,1.146.831,1.166,1.8.03,1.429.081,1.571.324,1.673v.091H846.43a3.381,3.381,0,0,1-.182-1.469c0-1.258-.173-1.521-.709-1.521h-.648v2.99h-1.7Zm1.7,3.051h.526a.836.836,0,0,0,.872-.942c0-.548-.2-.913-.882-.913h-.517Z" transform="translate(32.452 15.04)" fill="#fff"/><path d="M847.44,202.047H849.4l1.4,4.7h.02v-4.7H852.4v7.237h-1.925l-1.49-4.987h-.021v4.987h-1.52Z" transform="translate(34.217 15.04)" fill="#fff"/><path d="M853.314,202.047h2.128l1.8,7.237h-1.763l-.264-1.378h-1.733l-.253,1.378H851.47Zm1.034,1.318h-.021l-.6,3.224h1.237Z" transform="translate(35.89 15.04)" fill="#fff"/><path d="M856.081,202.047h1.7v5.859h2.464v1.378h-4.166Z" transform="translate(37.804 15.04)" fill="#fff"/><rect width="1.702" height="7.237" transform="translate(898.809 217.087)" fill="#fff"/><rect width="1.446" height="77.025" transform="translate(843.912 167.305)" fill="#fff" opacity="0.25"/><path d="M799.656,245.818l-34.642-20v-40l34.642-20,34.642,20v40ZM769.3,223.343l30.353,17.523,30.353-17.523V188.292l-30.353-17.524L769.3,188.292Z" transform="translate(0 0)" fill="#fff"/><path d="M831.625,223.92l-32.575,18.807L766.474,223.92V186.306l32.576-18.811,32.575,18.811Z" transform="translate(0.606 0.696)" fill="#263286"/><path d="M814.425,211.737,795.15,222.869l-19.277-11.131V189.479l19.277-11.126,19.276,11.126Z" transform="translate(4.508 5.204)" fill="#fff"/><path d="M795.15,222.974l-.046-.026L775.782,211.79V189.426l19.368-11.178.045.026,19.321,11.152V211.79l-.045.026Zm-19.186-11.289,19.186,11.079,19.185-11.079V189.532L795.15,178.458l-19.186,11.073Z" transform="translate(4.508 5.204)"/><path d="M766.465,209.64,784.7,220.147l5.874-12-10.768-6.214Z" transform="translate(0.602 14.993)" fill="#00a13a"/><path d="M819.593,209.64l-18.232,10.507-5.874-12,10.771-6.214Z" transform="translate(12.65 14.993)" fill="#e30613"/><path d="M779.351,218.325l14.355,8.283,14.354-8.283-5.874-12-8.56,4.852-8.4-4.852Z" transform="translate(5.951 16.816)" fill="#fff"/><path d="M774.8,179.351l8.455-4.882,1.064,1.85-5.155,2.983.668,1.152,4.748-2.738,1.07,1.848-4.748,2.744,1.579,2.728-3.3,1.9Z" transform="translate(4.063 3.591)" fill="#fff"/><rect width="3.81" height="8.765" transform="matrix(0.866, -0.501, 0.501, 0.866, 790.078, 176.469)" fill="#fff"/><path d="M793.17,176.5c-1.486-1.158-1.663-2.394-1.044-3.454,1.135-1.967,3.558-1.279,6.269.289,3.72,2.147,4.741,3.914,3.933,5.585L798.49,176.7a.727.727,0,0,0-.15-.89,3.412,3.412,0,0,0-.937-.759c-.982-.57-1.453-.539-1.637-.219-.122.215-.095.409.205.644l3.637,2.808c1.528,1.182,2.152,2.476,1.409,3.759-1.065,1.857-3.232,1.765-6.934-.375-2.542-1.466-5.129-3.384-3.852-5.622l3.977,2.3a.671.671,0,0,0,.04.743,3.352,3.352,0,0,0,1.03.808c1.027.6,1.456.5,1.665.144.126-.225.1-.536-.3-.859Z" transform="translate(10.328 2.498)" fill="#fff"/><rect width="8.765" height="3.808" transform="matrix(0.5, -0.866, 0.866, 0.5, 812.927, 188.732)" fill="#fff"/><path d="M799.273,166.869l-33.357,19.253V224.64l33.357,19.254,33.357-19.254V186.122Zm0,75.231-31.167-17.995,11.911-6.73L799.273,228.5l19.242-11.11,11.786,6.805Zm-8.751-26.061v-4.7l7.976-4.606v9.118l-4.152,2.4.776,1.353,3.376-1.954v8.614l-16.914-9.763,7.383-4.267v3.814Zm9.528,1.644,3.311,1.912.776-1.353-4.087-2.355v-9.159l7.91,4.564v4.746h1.553v-3.845l7.448,4.3-16.911,9.763Zm10.227-6.848,3.355-1.936-.777-1.339-4.128,2.384-7.9-4.562,7.954-4.6,4.076,2.365.777-1.349-3.3-1.906,7.408-4.279V215.15Zm-.764-12.266v-3.9h-1.553v4.809l-7.91,4.56v-9.215l4.087-2.362-.776-1.344-3.311,1.916v-8.52l16.911,9.762ZM798.5,193.059l-3.376-1.947-.776,1.344,4.152,2.4v9.179l-7.976-4.606v-4.762h-1.555v3.869l-7.383-4.265,16.914-9.762Zm-10.316,6.82-3.333,1.923.776,1.349,4.111-2.379,7.987,4.612-7.933,4.578-4.165-2.4-.776,1.339,3.386,1.959-7.426,4.288v-19.53Zm42.9,22.962-11.786-6.8V193.823l-20.017-11.557-20.018,11.557v22.2l-11.782,6.664V187.016l31.8-18.357,31.8,18.357Z" transform="translate(0.374 0.436)" fill="#919296"/><rect width="148.768" height="80" transform="translate(765.014 165.818)" fill="none"/></g></svg>