<?xml version="1.0" encoding="UTF-8"?>
<svg width="596px" height="108px" viewBox="0 0 596 108" version="1.1" xmlns="http://www.w3.org/2000/svg" xmlns:xlink="http://www.w3.org/1999/xlink">
    <title>Logo + scritta amaranto</title>
    <g id="Symbols" stroke="none" stroke-width="1" fill="none" fill-rule="evenodd">
        <g id="Logo-+-menu-Amaranto-Big" transform="translate(2.000000, 2.000000)">
            <g id="Sigillo-e-scritta" transform="translate(-0.000000, 0.000000)">
                <g id="Logo-+-scritta-amaranto" transform="translate(0.000000, 0.000000)">
                    <path d="M64.0222177,36.1155969 C64.5839749,36.0523323 64.6400069,35.4800753 65.0063732,35.2184044 C63.5179292,33.8308825 62.1846539,32.2837901 60.6085729,30.9811147 C60.4002487,31.3218664 60.1042845,31.5735014 59.8729727,31.8912477 C61.3844042,33.1737935 62.7061829,34.6418339 64.0222177,36.1155969" id="Path" fill="#6A6A6A" fill-rule="nonzero" transform="translate(62.439673, 33.548356) scale(-1, 1) rotate(-180.000000) translate(-62.439673, -33.548356) "></path>
                    <path d="M67.7052472,36.7590093 C67.4868659,36.5016374 67.0170588,36.4010036 66.8144814,36.1853145 C66.7555759,36.7978307 66.3561679,37.8661539 65.5947068,37.7065403 C65.1737481,37.6173947 64.8562331,37.204737 64.8102581,36.6871177 C64.7082539,35.5195985 65.3418442,34.0932696 64.7729034,33.1615547 C64.5157307,32.7431457 63.8749539,32.3764987 63.1106222,32.4469668 C62.2126728,32.530361 61.5014939,33.3700547 61.2342641,34.0745777 C61.148061,34.2988795 61.020193,34.7661747 61.1997829,35.0235466 C61.3606954,35.2579131 61.8779143,35.3240534 62.2529009,35.2018521 C62.2600816,34.8308771 61.9210159,34.6410834 61.8606737,34.271575 C61.7830909,33.8028276 62.1293402,33.5051964 62.324734,33.1615547 C62.8563201,32.9962041 63.3979632,33.1831222 63.6106005,33.5210126 C64.0502337,34.2154996 63.8217953,35.4376421 63.8634602,36.4886969 C63.9022516,37.5785876 64.212583,38.6698874 65.5085036,38.5491096 C66.0329061,38.4987998 66.5084602,38.2011687 66.8647665,37.904961 C67.2426237,37.5900903 67.5328409,37.1932488 67.7052472,36.7590093" id="Path" fill="#6A6A6A" fill-rule="nonzero" transform="translate(64.407137, 35.498262) scale(-1, 1) rotate(-180.000000) translate(-64.407137, -35.498262) "></path>
                    <path d="M41.37938,39.339359 C41.369323,39.1639579 41.2012268,39.0992411 41.2644425,38.9065861 C40.2544275,38.5154815 38.796159,38.5600543 37.6510938,38.2969311 C37.7545361,38.1143265 37.9686087,37.9949865 38.1697494,37.8828356 C38.7631144,37.5492731 39.5820443,37.3522758 40.1552953,36.9827531 C40.1782828,36.6117925 39.8923757,36.5413388 39.8765718,36.2106519 C38.0476283,36.7814567 36.7646381,37.8813978 34.8523649,38.3688227 C35.0707462,39.9159295 37.5289727,39.2962241 38.8378224,39.7894003 C38.7228863,39.9504374 38.4800807,40.0855936 38.2616994,40.2020723 C37.619486,40.5543267 36.8479678,40.8605848 36.151159,41.1740321 C36.1899504,41.4328418 36.325002,41.5996446 36.4456864,41.7851105 C38.0907298,40.96986 39.7774381,40.1963066 41.37938,39.339359" id="Path" fill="#6A6A6A" fill-rule="nonzero" transform="translate(38.115872, 38.997881) scale(-1, 1) rotate(-180.000000) translate(-38.115872, -38.997881) "></path>
                    <path d="M69.6527201,46.3003329 C68.2964572,45.8934266 67.2505256,45.0508573 66.2951074,44.0831967 C67.580971,44.2154915 68.8783284,44.3218767 70.0851725,44.5634468 C70.5750909,43.9509162 70.8868618,43.2090095 71.2187439,42.4800289 C70.6368727,41.6777188 70.0894827,40.8207569 69.5650802,39.9365048 C70.1785593,40.097542 70.7302594,40.6309775 71.310694,41.0163019 C71.4615495,41.118388 71.7747543,41.365695 71.8896918,41.3585202 C72.2287575,41.3369528 72.2632388,40.7186708 72.3666826,40.4843186 C71.5262018,39.9882668 70.6699172,39.5655299 69.8265631,39.0968112 C69.0061964,38.642442 68.2533556,37.9609099 67.2146076,37.8300672 C67.7188961,39.5152202 68.6858081,40.5533346 69.412788,41.9365141 C68.0981899,41.513806 67.0536951,40.720123 65.8482877,40.1507417 C65.7362207,40.2398873 65.3167016,40.6482171 65.4258923,40.9070267 C65.4776142,41.0263811 65.9273073,41.1327807 66.0508651,41.1874039 C67.4645968,41.7984967 68.8725816,42.7028927 70.0147733,43.5785178 C68.3783502,43.5756421 66.6772747,43.3283351 65.0293578,43.1816763 C64.8282142,43.161561 64.4661639,43.0882316 64.3153084,43.1313665 C64.0164708,43.2205121 63.9101536,43.8056952 63.8325707,44.0788975 C64.2894446,44.3391451 64.752071,44.5505063 65.1845235,44.8236943 C65.6097923,45.0939922 66.0092003,45.394499 66.4114816,45.7136976 C67.2189178,46.3535471 67.9875625,47.1443544 68.7174159,47.7913786 C69.1944066,47.4146524 69.4415223,46.8668386 69.6527201,46.3003329" id="Path" fill="#6A6A6A" fill-rule="nonzero" transform="translate(68.099627, 42.810723) scale(-1, 1) rotate(-180.000000) translate(-68.099627, -42.810723) "></path>
                    <path d="M39.9060537,41.4254944 C39.9088994,40.8331078 39.6991384,40.4607095 39.4089197,40.1717197 C37.4434879,40.9553379 35.9607937,42.2335558 33.9105955,42.9337797 C34.1059893,43.3507653 34.3301174,43.8525541 34.5326948,44.1875832 C36.3875007,43.3306212 38.0224857,42.2508241 39.9060537,41.4254944" id="Path" fill="#6A6A6A" fill-rule="nonzero" transform="translate(36.908325, 42.179651) scale(-1, 1) rotate(-180.000000) translate(-36.908325, -42.179651) "></path>
                    <path d="M33.8259727,48.4414333 C34.2670426,48.2847097 34.5701918,47.8864303 34.9049473,47.6721934 C33.6837346,47.7138905 32.9725615,46.9532776 32.9510107,45.8159529 C32.9194015,44.1768249 34.2426212,42.9992409 35.8474351,43.1027647 C36.7554416,43.1631537 37.5197748,43.723908 37.6088528,44.6915686 C37.666323,45.3069605 37.5140293,45.7483748 37.3531182,46.1739729 C37.7855707,46.020125 38.1979062,45.6879859 38.5326647,45.3702251 C37.9234929,43.7195945 37.4421948,41.4765772 35.1075262,41.64049 C34.3633057,41.6907998 33.6478181,42.0919691 33.1564616,42.5491852 C32.6622302,43.0093057 32.2556372,43.654892 32.1134035,44.3881861 C31.942431,45.2580742 32.1679988,46.2300484 32.5386723,46.7634695 C32.7469966,47.0553637 33.0027326,47.2825411 33.2254241,47.5140319 C33.4854703,47.7814686 33.6593133,48.0877267 33.8259727,48.4414333" id="Path" fill="#6A6A6A" fill-rule="nonzero" transform="translate(35.293981, 45.036715) scale(-1, 1) rotate(-180.000000) translate(-35.293981, -45.036715) "></path>
                    <path d="M73.2512705,48.3758572 C71.6924302,47.5016556 70.103416,46.6849672 68.5618192,45.7762577 C68.2170037,45.9631758 68.2615449,46.3700821 67.9785112,46.5958217 C69.5028702,47.5045312 71.1292363,48.3701058 72.5386578,49.3995932 C72.9567402,49.1594754 72.9351923,48.6734883 73.2512705,48.3758572" id="Path" fill="#6A6A6A" fill-rule="nonzero" transform="translate(70.614891, 47.587925) scale(-1, 1) rotate(-180.000000) translate(-70.614891, -47.587925) "></path>
                    <path d="M73.3996836,52.5623769 C73.8364491,52.2963781 73.806278,51.7672705 74.0964953,51.417863 C73.2430812,50.6126773 72.4543224,49.6924651 71.6727472,48.7578746 C73.049127,48.7995717 74.4384316,48.8168257 75.4268944,49.5529955 C75.6165413,49.2208564 76.0001496,48.9951168 75.9987126,48.5551404 C74.0174729,48.4588057 72.2761692,47.9282458 70.483148,47.4940351 C70.1368944,47.7887762 69.9256996,48.1626124 69.7360526,48.5407621 C71.0535241,49.7111569 72.0850856,51.3847929 73.3996836,52.5623769" id="Path" fill="#6A6A6A" fill-rule="nonzero" transform="translate(72.867383, 50.028206) scale(-1, 1) rotate(-180.000000) translate(-72.867383, -50.028206) "></path>
                    <path d="M35.6210096,47.3662118 C35.5003252,46.6703157 34.9960368,46.3410523 34.3495132,46.1411793 C33.1570362,47.783183 31.7073881,49.1663769 30.0020024,50.2821342 C30.2088885,50.7940167 30.8396097,50.8975261 31.0680466,51.3820754 C32.4961469,49.9499951 33.7475278,48.3396382 35.6210096,47.3662118" id="Path" fill="#6A6A6A" fill-rule="nonzero" transform="translate(32.811506, 48.761627) scale(-1, 1) rotate(-180.000000) translate(-32.811506, -48.761627) "></path>
                    <path d="M29.2626653,53.8626809 C29.8201123,53.9805831 29.9336146,53.4543367 30.3976749,53.4327693 C30.1994062,53.2429755 29.9422335,53.1351381 29.7123584,52.9237769 C29.5571927,52.782855 29.2755972,52.4651086 29.3244442,52.2091746 C29.3531786,52.0596401 29.6160982,51.8410753 29.7669537,51.6915552 C30.8444931,50.6160572 32.2840857,49.8108716 33.3644985,48.8719676 C33.213643,48.463609 32.7467093,48.2968349 32.6418288,47.852545 C31.1706283,48.8187678 29.8919483,50.0624777 28.4767799,51.1063434 C27.9064024,50.7684674 27.4983742,50.3097991 27.3173475,49.6814523 C27.0472443,49.8310012 26.9050091,50.1616881 26.6866293,50.3816763 C27.3575757,51.6857895 28.4882737,52.637634 29.2626653,53.8626809" id="Path" fill="#6A6A6A" fill-rule="nonzero" transform="translate(30.025564, 50.866211) scale(-1, 1) rotate(-180.000000) translate(-30.025564, -50.866211) "></path>
                    <path d="M78.2879769,54.0108041 C77.5811082,54.2595489 77.8871323,55.6326781 76.8914859,55.547846 C75.917386,55.4673274 75.755041,53.618276 77.0365945,53.7404917 C76.8282702,53.3206449 76.4001279,53.1222242 75.8714153,53.0258894 C75.9317575,53.550698 75.7967016,54.0338094 75.4260295,54.1890952 C75.0036369,54.0640038 74.4950383,53.7764375 74.1732132,53.4371093 C74.0194814,53.2746343 73.8312698,53.0172625 73.8011001,52.7742689 C73.7134631,52.1315582 74.3355625,51.9187591 74.8513447,51.7735382 C74.7450275,51.4802205 74.3168851,51.2012812 73.8887428,51.3982641 C73.1876239,51.7203384 72.7795956,52.9194899 72.3672572,53.5449466 C73.319802,53.8195725 74.0597095,54.5586179 74.7105419,55.2085178 C74.9935799,55.4917706 75.3053479,55.7678342 75.6214261,56.0323952 C75.9533083,56.3070211 76.3081779,56.60609 76.694651,56.7110517 C76.7751073,56.7326192 76.9432049,56.7081904 77.0523956,56.6564141 C77.4316894,56.4882022 77.7046689,56.2034972 78.0351143,55.8181583 C78.4474527,55.3422361 78.9819123,54.4665967 78.2879769,54.0108041" id="Path" fill="#6A6A6A" fill-rule="nonzero" transform="translate(75.495167, 54.025571) scale(-1, 1) rotate(-180.000000) translate(-75.495167, -54.025571) "></path>
                    <path d="M77.8115637,63.4450508 C77.4480709,61.6563883 79.8746895,61.7167773 80.0097411,62.999323 C80.0470987,63.3616566 79.9364713,63.6132771 79.7784294,63.8045087 C79.1275999,63.6765417 78.3919954,63.6391581 77.8115637,63.4450508 M75.5602219,60.0992168 C74.5803794,60.0891448 73.9597196,57.9510907 75.2024788,57.8274429 C75.3145429,57.8173781 75.4108031,57.8346321 75.5228672,57.8648265 C76.6004066,58.1380145 77.4365771,59.4205603 78.7066369,59.5111437 C79.4637879,59.5614678 80.143356,58.953265 80.0470987,58.1667712 C79.9422153,57.2896939 79.1821909,56.7648854 78.9911073,55.9683267 C78.5916993,56.0905424 78.3905615,56.4140487 77.9351187,56.4859461 C78.4221665,56.819523 79.4408004,57.3946556 78.8158275,58.2214088 C78.0672968,58.1725225 77.6204772,57.8561995 77.0975114,57.5398766 C76.6262675,57.2580616 76.0716939,56.8655336 75.3791953,56.8612201 C74.3303903,56.8525874 73.7973675,57.6347735 73.8778238,58.8281737 C73.9151785,59.3616092 74.1163191,59.9770011 74.3433208,60.4040371 C74.3734919,60.4615503 74.4295268,60.5334419 74.4683197,60.6197118 C74.5789456,60.8627053 74.5803794,60.9115916 74.9338123,60.9044024 C74.8978972,61.2192876 75.0976012,61.4407136 75.1292062,61.7440961 C75.6205641,62.2660217 76.439494,62.461574 76.8274082,63.0884686 C75.9165311,63.1718628 75.2024788,62.9044204 74.5918732,62.6226112 C74.295909,62.8368481 74.4841193,63.5385099 74.3246434,63.8922164 C76.163644,64.401203 78.5802085,64.4285276 80.0830138,65.2178971 C80.9953305,63.818887 80.9507922,60.8123812 78.6678498,61.0136776 C78.0960312,61.0640017 77.7153006,61.3990165 77.3273865,61.6563883 C77.2153224,61.7297178 77.0314223,61.8893171 76.9150481,61.9051275 C76.6837392,61.9425168 76.3231198,61.7671014 76.127726,61.6563883 C75.9466994,61.5514266 75.6119438,61.3271177 75.5760287,61.1718391 C75.5602219,61.1056931 75.60045,60.9633535 75.5947032,60.8684567 C75.5702789,60.5708255 75.3993094,60.3407725 75.5602219,60.0992168" id="Shape" fill="#6A6A6A" fill-rule="nonzero" transform="translate(77.254053, 60.593112) scale(-1, 1) rotate(-180.000000) translate(-77.254053, -60.593112) "></path>
                    <path d="M25.3549328,65.7145227 C24.9785124,65.5117899 24.4871545,65.4197615 24.2113044,65.1235682 C24.7371436,65.1667031 25.0618421,65.0128623 25.5388329,65.005666 C25.558947,65.3219889 25.4928579,65.5520492 25.3549328,65.7145227 M28.397904,66.6764263 C28.2872767,66.6692443 28.0947563,66.8015176 27.9036726,66.8158959 C27.3534092,66.8547174 26.9008427,66.4377462 26.4583332,66.3241575 L26.4583332,66.3241575 L26.4583332,65.6354362 C26.4583332,65.4341455 26.3908074,65.1537684 26.4583332,64.9467149 C26.535916,64.6879052 27.0387691,64.6375811 27.3534092,64.6131452 C27.7097156,64.5843813 28.2585423,64.6519666 28.4970377,64.5340644 C28.735533,64.4147244 29.0314972,63.7561961 29.1320675,63.4916437 C29.2857965,63.0789717 29.3676895,62.6735118 29.436652,62.1544546 C27.7341398,62.0164214 26.9712419,60.9739863 25.5388329,60.5785898 C26.2945472,60.3082703 27.4295553,60.5153324 28.397904,60.4606876 C28.3562392,59.8366759 28.004243,59.5174773 27.886432,58.9653356 C29.1521816,59.1680699 29.9136427,59.859674 30.8877383,60.3413462 C30.925093,59.9329963 31.2440447,59.7949644 31.2727791,59.3794397 C29.180916,58.6691423 27.3763967,57.6770385 25.6394032,56.624553 C25.6595173,57.0300143 25.2256281,57.1321004 25.231375,57.4714286 C25.2342484,57.59652 25.4296422,57.8812192 25.5158454,58.0206889 C25.8175564,58.5109808 26.2801814,59.0429843 26.5560301,59.477218 C25.8434174,59.8050292 24.7141575,59.7331377 23.6998324,59.7733969 C23.6050089,60.2737623 23.287494,60.5555917 23.2688166,61.1307099 C25.3204516,61.6397081 26.8203864,62.6806924 28.5171517,63.529013 C26.6566004,64.2105595 24.1480887,64.2795611 21.9441616,64.6318384 C21.9441616,64.9855363 21.9657109,65.3608104 21.8378443,65.5951769 C23.9440746,66.6261022 25.8836455,67.9201506 28.211132,68.6635095 C28.4295118,68.1559549 28.433822,67.3680304 28.397904,66.6764263" id="Shape" fill="#6A6A6A" fill-rule="nonzero" transform="translate(26.555312, 62.644031) scale(-1, 1) rotate(-180.000000) translate(-26.555312, -62.644031) "></path>
                    <path d="M79.3317534,69.3617277 C78.7254579,67.7053457 77.8160147,66.3566655 77.149377,64.7635423 C76.6982472,64.7692937 76.4223971,64.9533361 76.1293064,65.1201246 C76.0976985,65.1776378 76.2356236,65.2710969 76.3088963,65.3357993 C76.530151,65.5356579 76.8088745,65.7714623 76.9884644,66.0158936 C75.8275953,67.1115213 74.1839886,67.7312267 72.6610663,68.4659586 C72.744396,68.8886811 73.0417969,69.1000423 73.1093227,69.5400188 C74.4296676,68.6126174 76.0948251,68.0317335 77.5947599,67.2869367 C77.9180217,67.4450982 77.9553764,67.8922638 78.1522069,68.181268 C76.8792738,69.1633069 75.3348007,69.8735957 73.7544096,70.5421874 C73.8147518,71.0123583 74.1710581,71.1848981 74.2874324,71.5989936 C75.9324758,70.8124997 77.41517,69.87072 79.3317534,69.3617277" id="Path" fill="#6A6A6A" fill-rule="nonzero" transform="translate(75.996410, 68.181268) scale(-1, 1) rotate(-180.000000) translate(-75.996410, -68.181268) "></path>
                    <path d="M32.9966984,70.0375884 C31.082987,69.3848128 29.3359365,68.5796272 27.6880211,67.6752397 C27.3561375,68.0548273 27.1722389,68.5724524 27.0544279,69.1518985 C28.798605,69.6910853 30.3560086,70.4186137 31.689284,71.3560799 C31.6088277,72.1253342 30.6663399,72.063493 30.0542961,72.319427 C30.3560086,72.5494873 30.804265,72.8313008 31.3818246,72.6918312 C32.4248827,72.4474027 32.9823298,71.2151782 32.9966984,70.0375884" id="Path" fill="#6A6A6A" fill-rule="nonzero" transform="translate(30.025563, 70.202108) scale(-1, 1) rotate(-180.000000) translate(-30.025563, -70.202108) "></path>
                    <path d="M73.4080166,73.7837698 C73.7140335,73.7708221 74.1622913,73.5422141 74.3907296,73.7837698 C73.9999449,73.8355246 73.9525303,74.2381318 73.5157662,74.2467444 C73.4266882,74.1446641 73.3922127,73.9893725 73.4080166,73.7837698 M76.2857651,72.8879936 C74.7642795,72.534287 73.109179,73.0461608 71.5144207,72.9598995 C71.4756293,72.6895728 71.8075086,72.5400527 71.8534865,72.3516824 C71.2730519,72.3516824 70.8779542,72.0569269 70.5475087,71.68741 C70.2472344,71.3523895 69.7716775,70.5385768 70.2615973,70.1331083 C70.3923388,70.0252796 70.7170416,69.9045075 71.0316788,69.9346876 C71.6738966,70.0008278 72.1293322,70.6464214 72.5675316,71.1338391 C72.9999884,71.6155126 73.4755381,72.1705156 74.1938977,72.2438522 C75.3131062,72.3574337 75.9337689,71.6557719 75.8418189,70.4724366 C75.7857868,69.8096034 75.2901144,69.6313108 75.3016081,68.7369739 C74.8921432,68.6837741 74.5688857,68.8232438 74.2513679,68.9167028 C74.859103,69.1510751 75.3863789,70.3286606 74.7470389,70.9023626 C73.4899096,70.7830225 73.1034293,69.8167854 72.3362212,69.1482023 C72.0230193,68.8735679 71.7141247,68.5860159 71.1394327,68.6291437 C70.3176337,68.6924068 69.5418025,69.309238 69.4599123,70.0583411 C69.4441041,70.1934972 69.4469761,70.345916 69.4599123,70.4896963 C69.5173811,71.2172333 69.9383398,71.8398287 70.2615973,72.4221448 C70.603535,73.0375281 70.9325437,73.6198585 71.083405,74.3172125 C71.3089656,74.2841338 71.5287836,74.1964347 71.7830872,74.1590453 C72.014399,74.1216602 72.3477135,74.0584028 72.5675316,74.1403535 C72.8778615,74.2524957 72.9425196,74.9699737 73.2284267,75.1597746 C72.9827477,75.7118948 72.4525984,75.9793386 71.9784767,76.3042814 C72.1077814,76.5213997 72.2859361,76.7845171 72.443978,76.9139363 C73.0905017,76.2525194 73.7528263,75.6026253 74.4108437,74.9455305 C75.061676,74.292755 75.8518759,73.7506925 76.2857651,72.8879936" id="Shape" fill="#6A6A6A" fill-rule="nonzero" transform="translate(72.867436, 72.769380) scale(-1, 1) rotate(-180.000000) translate(-72.867436, -72.769380) "></path>
                    <path d="M31.7471837,72.8368156 C31.5331126,72.4788041 31.1193375,72.3134449 30.9311258,71.9295439 C31.352086,71.9467978 31.7227595,72.1092728 32.178198,72.0301921 C32.0776291,72.3407709 32.0661354,72.7347295 31.7471837,72.8368156 M33.0948263,76.0820014 C33.4741202,75.8116891 33.551703,75.1445352 33.7873249,74.8037691 C33.5948046,74.1768832 32.8620764,74.0733507 32.5632388,73.5442287 C32.807481,73.1013838 33.0028763,72.6139517 33.3017124,72.2257372 C34.0114531,71.9396173 34.7010783,72.3335745 35.2412833,72.5219376 C35.186688,71.9942463 35.4237481,71.6534802 35.3447285,71.1631868 C33.2011421,71.6649886 30.6222312,70.9043771 28.3780759,71.263835 C28.7789219,72.3565798 29.8909426,72.898651 30.6868836,73.6621366 C31.5072516,74.4529382 32.2644026,75.2983904 33.0948263,76.0820014" id="Shape" fill="#6A6A6A" fill-rule="nonzero" transform="translate(31.869547, 73.622594) scale(-1, 1) rotate(-180.000000) translate(-31.869547, -73.622594) "></path>
                    <path d="M38.5730365,37.73793 C38.6850977,36.9888342 37.2900463,36.5847891 37.8431831,35.7422198 C38.3833895,34.9169045 40.1433705,35.6847209 39.4178259,36.760219 C39.8991283,36.7817864 40.2856043,36.4999714 40.6261082,36.0772346 C40.1203816,35.8745003 39.7453993,35.5164947 39.7813159,35.1110262 C40.0973955,34.7975789 40.6031206,34.4884451 41.0657442,34.3690907 C41.286999,34.3130153 41.6116961,34.2713325 41.847318,34.3647916 C42.473729,34.6020194 42.3702838,35.2605463 42.253911,35.7896827 C42.5728626,35.8385545 43.0297379,35.595561 43.057037,35.1196388 C43.1001385,34.3389106 42.2050625,33.3870517 41.8329522,32.7127231 C41.1275231,33.4244354 40.0988322,33.7163295 39.1965726,33.9751248 C38.8043468,34.0858523 38.4035036,34.2267454 38.0112764,34.3777177 C37.6018129,34.5373314 37.1607415,34.7055577 36.8791417,34.9959996 C36.8216758,35.0563742 36.7642042,35.2174113 36.7570235,35.3410648 C36.7297229,35.7594738 36.8575924,36.141937 37.0501142,36.6250484 C37.2857361,37.2246385 37.8259411,38.1290346 38.5730365,37.73793" id="Path" fill="#6A6A6A" fill-rule="nonzero" transform="translate(39.905949, 35.272833) scale(-1, 1) rotate(-180.000000) translate(-39.905949, -35.272833) "></path>
                    <path d="M45.8699894,29.4942531 C45.7478683,29.3490321 45.5654006,29.3979184 45.4935661,29.1922941 C44.3887291,29.487064 43.1890715,30.4446598 42.0540605,30.937836 C42.0238908,30.7135343 42.1258993,30.4762921 42.2235948,30.251976 C42.5066284,29.5891356 43.0698238,28.9033044 43.314066,28.2217722 C43.0928084,27.8853196 42.8054674,28.0046596 42.5784629,27.7271581 C41.4075397,29.3734753 41.0383029,31.1362568 39.7409455,32.7624443 C40.9276726,33.9673327 42.5971417,31.8824914 44.0194937,31.484212 C44.0266759,31.6970111 43.9103016,31.9673234 43.801111,32.2060035 C43.4879062,32.9148544 43.0367764,33.6682781 42.6517371,34.3785669 C42.8528763,34.5784255 43.0755692,34.6373766 43.2953872,34.7222087 C44.1545439,32.9795568 45.0754794,31.245532 45.8699894,29.4942531" id="Path" fill="#6A6A6A" fill-rule="nonzero" transform="translate(42.805467, 31.224683) scale(-1, 1) rotate(-180.000000) translate(-42.805467, -31.224683) "></path>
                    <path d="M63.412043,32.5138126 C63.2884852,32.1989275 62.8761468,31.9530583 62.7525889,31.6841838 C62.4997264,32.2449381 61.7784933,33.1277666 61.1089822,32.732363 C60.7397454,32.5109369 60.5716493,32.0177607 60.6952071,31.5130818 C60.9739306,30.375757 62.0313559,29.2283675 61.7928605,28.1643721 C61.6836699,27.6841364 61.1951854,27.1305712 60.4480914,26.9508423 C59.5716927,26.7409189 58.6277682,27.3059867 58.1493407,27.8883085 C57.9956118,28.0723509 57.7240719,28.4735059 57.810275,28.7740127 C57.8878579,29.0486385 58.3562283,29.2772537 58.7513261,29.2830051 C58.8763178,28.9350498 58.6162716,28.6446079 58.6780491,28.2750851 C58.7556362,27.8077899 59.1794684,27.6366879 59.4754297,27.3750026 C60.0314428,27.3893809 60.4840094,27.7402118 60.5773961,28.1284263 C60.7684798,28.9292985 60.1607476,30.0119857 59.86191,31.0199056 C59.5472685,32.0652091 59.4912364,33.1982204 60.756986,33.500165 C61.2698948,33.6223807 61.8144113,33.4929759 62.2482976,33.3276252 C62.7066139,33.150772 63.1088953,32.868957 63.412043,32.5138126" id="Path" fill="#6A6A6A" fill-rule="nonzero" transform="translate(60.602894, 30.227244) scale(-1, 1) rotate(-180.000000) translate(-60.602894, -30.227244) "></path>
                    <path d="M55.5794812,82.435314 C55.1082402,82.3792385 54.9013497,81.6718168 54.470334,81.5050369 C53.785019,81.2419138 52.688808,81.49641 51.9618266,81.5582367 C49.3584915,81.7868519 47.2077186,81.7897204 44.6130038,81.9622674 C44.2610119,79.9234222 46.2221293,80.1146538 48.023778,80.0168813 C51.433114,79.8313953 55.5924117,79.7738878 58.7072231,79.6128434 C58.4586707,80.3677122 58.2331015,81.2706632 58.4040711,82.2771525 C57.5679005,82.1405585 56.4185252,82.5374 55.5794812,82.435314 M40.0356166,85.7408887 C39.7971212,85.38862 39.6175313,85.1513778 39.6175313,84.6567637 C39.6175313,84.0068567 39.7396539,83.3368344 40.1778546,83.083776 C40.9005244,82.6639292 42.2840835,82.6969993 43.3831765,82.7228803 C46.9448033,82.809143 50.3455133,82.2081308 53.8022596,82.2584607 C53.5335931,82.9845656 53.4473957,84.02268 53.6126127,85.0176594 C49.1286121,85.2922853 44.3385933,85.5137113 39.820113,85.7523914 C39.7942506,85.74664 39.8603412,85.8472883 39.8445344,85.8314721 M53.6269856,86.3792859 C52.828164,86.3792859 52.0580825,86.4181074 51.2808175,86.4511775 C49.2306221,86.5403173 47.194791,86.6956089 45.1761977,86.7919436 C44.1417628,86.8408241 43.1274377,87.0004234 42.1131154,86.9544186 C41.6777895,86.9328511 41.1677556,86.8523325 40.8761002,86.6668522 C40.7956439,86.6122146 40.6706493,86.5403173 40.6792711,86.4324857 C45.0397123,86.2110596 49.4015888,85.9838751 53.661464,85.6632386 C53.7605976,85.7437572 53.7936393,85.8357856 53.8956463,85.9148663 C54.0350081,86.0155145 54.2390251,86.0629558 54.2893103,86.2541946 C54.132705,86.4583667 53.8410539,86.3792859 53.6269856,86.3792859 M59.4112112,82.7602639 C59.2287507,82.5747836 58.8638212,82.2771525 58.8049157,82.0959857 C58.6827946,81.7394035 58.8063567,81.2332868 58.8753207,80.8939499 C58.9557755,80.505744 58.9557755,79.9694328 59.069272,79.6516663 C60.0476778,80.3792148 60.9413214,81.5122261 61.7947283,82.3634224 C62.6481438,83.2218078 63.6624632,84.2814897 64.4698994,85.1887614 C64.1911758,85.7279482 64.3104235,86.7588735 64.2601384,87.5295512 C62.8579048,86.1204705 60.8781015,84.2254071 59.4112112,82.7602639 M60.5921986,87.7064045 C60.5749566,87.7035288 60.5749566,87.6776478 60.5778271,87.6517669 C60.4844433,87.1082665 59.9959588,86.8192624 59.6281558,86.4511775 C58.9629548,85.7854615 58.3523492,85.1513778 57.7460537,84.4986023 C57.4299798,84.1535227 57.1340113,83.7839942 56.8337399,83.493558 C56.7690846,83.4302934 56.5866213,83.3555262 56.6182291,83.2965751 C57.0865996,83.2591914 57.5880146,83.2520023 58.0333975,83.2232457 C58.1885675,83.2160565 58.3983285,83.167163 58.4988988,83.1901669 C58.6138321,83.2146187 58.8896821,83.5266209 59.0362318,83.6732869 C59.9226832,84.560429 60.7401764,85.414501 61.5993388,86.2714486 C62.0490319,86.7258033 62.4369417,87.1700933 62.9211161,87.4907297 C62.1481655,87.5640591 61.3910145,87.6560804 60.5921986,87.7064045 M59.4298885,89.7366169 C58.6080895,88.8868642 57.3222244,87.4432813 56.441517,86.5590149 C56.3150843,86.4339235 56.1340591,86.2283136 56.0277376,86.2009891 C55.8438418,86.1521085 55.6699945,86.1765517 55.5263254,86.147795 C54.0996633,85.8544774 53.513479,83.7149841 54.2390251,82.3346658 C56.076586,83.9378479 58.2532155,85.9536878 59.8106191,87.8343715 C59.5505729,88.2024563 59.6008581,89.28083 59.4298885,89.7366169 M41.4680285,88.3548665 C41.9866841,87.3987028 43.2739844,87.4907297 44.7811028,87.4907297 C46.0209886,87.4907297 47.2149051,87.411649 48.3082455,87.3498222 C50.7794025,87.2031562 53.2218279,87.0780721 55.4559262,86.958732 C55.1427186,87.7092801 55.0493318,88.7056974 55.1326615,89.7366169 C50.5524008,89.8674653 46.2824715,90.2513663 41.77261,90.4497871 C41.3918809,90.0141241 41.2597042,89.8286438 41.3157362,89.0148312 M60.875228,94.8366112 C60.875228,94.8495445 61.3349781,95.3154091 60.9700515,94.9516291 C60.1367572,94.1148197 58.9399673,92.8610306 57.9974853,91.9192509 C57.5851411,91.5037176 57.063615,91.1241301 56.5837508,90.6985319 C56.1469853,90.3117552 55.5694241,89.7768747 55.5090819,89.1212307 C55.4372489,88.3821853 55.6886718,87.7049666 55.7992992,87.0737586 C57.6411761,88.6711894 59.6870641,90.9314606 61.3134302,92.7445662 C60.8982155,93.1399699 61.3392883,94.5059099 61.095046,95.0724155 M49.4432536,95.6417968 C49.9231178,95.6417968 50.0825937,95.6101573 48.4174362,94.5533583 C46.6818852,93.45341 44.7782265,92.4138578 43.1518619,91.2204648 C43.1173806,91.1960145 43.0297393,91.1773298 43.0441108,91.1097518 C46.8973873,90.9904117 50.648661,90.5921324 54.5234926,90.484295 C54.7921591,90.4756623 55.1254822,90.4037765 55.3122514,90.4497871 C55.4616702,90.484295 55.7633855,90.8581312 55.9228614,91.0047901 C56.1383649,91.2060865 56.3351983,91.3929988 56.5291525,91.577047 C57.7230662,92.6999935 58.8810618,93.7395457 59.9341813,94.9473184 C59.9600379,94.9803943 60.0677918,95.1069177 60.0031438,95.1069177 C57.5291134,95.1284852 51.907227,95.1543719 49.7191066,95.6202294 C49.6975572,95.6245428 50.3986748,95.5871535 50.4015453,95.5627161 M61.9929955,95.6806183 C61.5389923,94.8869353 61.3134302,93.0680783 61.9929955,92.3462869 C61.2976234,91.2032108 59.7488402,90.740229 59.9657877,88.7977129 C61.5749102,88.4857092 63.4627592,88.4483255 65.2169933,88.2786557 C65.2442939,88.1823181 65.1480308,88.1003631 65.1078027,88.0112247 C64.7486229,87.2117904 64.5417353,85.5482193 65.2529156,84.9270761 C63.5029874,82.9788143 61.596461,81.0564335 59.7014285,79.157058 C59.5778735,79.037718 59.3939763,78.8234811 59.306335,78.799038 C59.0635251,78.732892 58.5391255,78.8206054 58.1756327,78.8349837 C55.519139,78.9413833 53.0508598,79.0894799 50.4403367,79.2102578 C49.0941309,79.2735152 47.4692015,79.2994033 46.0353558,79.4431865 C44.4664585,79.601348 43.1374947,80.1247187 43.4377676,81.9723236 C42.2179959,82.1491783 41.0298291,82.0298383 40.0341813,82.3102154 C39.0270412,82.5977889 38.4983285,83.3325209 38.567291,84.5704938 C38.610394,85.3512364 38.9307824,86.1334167 39.4451264,86.5216255 C39.8675233,86.8436983 40.4206602,86.9659212 40.8229401,87.3296926 C39.9910826,88.0572354 40.0442383,90.1133345 40.6792711,90.9501525 C41.0643075,91.457707 41.8774934,91.8387324 42.4909696,92.1694336 C44.4334168,93.2147372 46.8815891,94.9444485 48.7033433,96.0113195" id="Shape" fill="#6A6A6A" fill-rule="nonzero" transform="translate(51.907108, 87.392978) scale(-1, 1) rotate(-180.000000) translate(-51.907108, -87.392978) "></path>
                    <path d="M53.4159258,64.2480856 C53.9087205,62.4752393 54.325369,61.9389281 53.6975228,60.8677436 C52.2579302,58.4133651 53.2981148,62.3055752 52.8053202,64.0784287 C52.3125255,65.8512678 51.7737558,67.582417 52.1113848,67.6758818 C52.4475771,67.7693351 52.9231311,66.0209319 53.4159258,64.2480856" id="Path" fill="#6A6A6A" fill-rule="nonzero" transform="translate(53.010324, 63.878919) scale(-1, 1) rotate(-180.000000) translate(-53.010324, -63.878919) "></path>
                    <path d="M49.9655011,68.2442757 C49.4870736,68.0573576 49.3175407,67.374379 49.5531627,66.9171572 C49.6479861,66.7331076 49.7988416,66.5821424 49.9008487,66.4024135 C50.1235402,66.0098855 50.0890589,65.5008931 49.8721143,65.1054894 C49.6551697,64.7100858 49.2758759,64.4196352 48.860664,64.2427905 C48.2902865,63.9983519 47.6538199,63.9537864 47.070512,63.7424251 C46.487204,63.5325017 45.9153897,63.0666443 45.8895259,62.445501 C46.0849226,62.4483767 46.2788797,62.5260196 46.4211149,62.6597308 C46.4771469,62.3649825 46.533179,62.070227 46.5877714,61.7754715 C46.8061556,62.2930909 47.2515386,62.7086242 47.7831247,62.8883532 C48.185406,63.0249472 48.6192952,63.0292607 49.0388172,63.1054657 C50.0790019,63.2938217 51.1105662,64.1220126 51.0818318,65.1802567 C51.0717748,65.5210228 50.9554006,65.8474105 50.840463,66.168047 C50.7255255,66.4886834 50.6091512,66.8107519 50.4942137,67.1313869 C50.5085809,67.6993376 51.3160171,67.2722944 51.6938742,67.0580647 C52.0717314,66.8452656 52.7469894,66.6597853 52.7125081,66.7863145 C52.6967042,66.8438278 52.6679698,66.9401625 52.6507292,67.0048649 C52.6334885,67.0666917 52.5946971,67.3686363 52.5487221,67.4132019 C52.0056394,67.9552716 50.9410334,68.6253011 49.9655011,68.2442757" id="Path" fill="#6A6A6A" fill-rule="nonzero" transform="translate(49.301653, 65.065862) scale(-1, 1) rotate(-180.000000) translate(-49.301653, -65.065862) "></path>
                    <path d="M53.1351909,69.2448019 C53.4009839,69.3512015 53.1265706,69.2419263 53.4139144,69.3569528 C53.9957857,69.5913193 54.6696069,69.8343129 55.2227438,69.5395574 C55.5761767,69.3512015 55.7916846,68.9845544 55.9885151,68.6351613 C56.249998,68.1721796 56.5129176,67.7020087 56.6551528,67.1901406 C56.8175021,66.6049432 56.8261224,65.9564811 57.1666248,65.4532401 C57.2585749,65.3195218 57.370639,65.2001817 57.4740827,65.0750904 C58.0947454,64.3317315 58.4352479,63.3583195 58.4122604,62.3892211 C58.1680152,62.6005823 57.8964782,62.7817491 57.6062609,62.9240944 C57.6407422,62.6106471 57.5157476,62.2842593 57.2786889,62.0743359 C57.3174804,62.9169052 57.0143326,63.7709772 56.4511387,64.4007474 C56.3089035,64.5603467 56.147991,64.7084434 56.0344901,64.891048 C55.9094956,65.0923444 55.8477167,65.3267109 55.7859377,65.556764 C55.6882408,65.9277245 55.5905439,66.3001229 55.492847,66.6710834 C55.3735993,67.126876 55.2500415,67.5912956 54.9828117,67.9780723 C54.7155791,68.364849 54.2730725,68.663918 53.804702,68.6279722 C53.4641996,68.6020912 53.6797074,68.5071943 53.3392021,68.518697" id="Path" fill="#6A6A6A" fill-rule="nonzero" transform="translate(55.774272, 65.874827) scale(-1, 1) rotate(-180.000000) translate(-55.774272, -65.874827) "></path>
                    <path d="M32.9173901,16.2368945 C33.7449403,15.9162581 35.5264721,16.002528 36.1959846,16.9630138 C36.188801,16.9788156 36.2017315,16.9831291 36.1988581,16.9960696 C35.2664259,16.9931939 33.8268347,17.0938421 32.9173901,16.2368945 M37.0910607,17.5007484 C37.0422108,16.4425188 35.8051956,15.6445079 34.5092735,15.4820329 C33.4935159,15.3598172 32.5021797,15.52373 31.8642749,16.0931113 C32.4289055,17.1470419 34.0437793,17.5611517 35.2635539,17.6172128 C35.92588,17.6488451 36.6384927,17.6028345 37.0910607,17.5007484" id="Shape" fill="#6A6A6A" fill-rule="nonzero" transform="translate(34.477668, 16.535520) scale(-1, 1) rotate(-180.000000) translate(-34.477668, -16.535520) "></path>
                    <path d="M41.236856,15.2938439 C40.4782683,15.75395 38.7082289,15.9825652 37.8806815,15.1543742 C37.8849888,15.1385581 37.8720612,15.1356824 37.8720612,15.1227419 C38.79156,14.9617048 40.1894863,14.6094361 41.236856,15.2938439 M36.9051492,14.7819758 C37.1393344,15.8143389 38.4970326,16.3837202 39.8001369,16.3161421 C40.8230795,16.2586145 41.7698788,15.9236141 42.2971562,15.2507089 C41.557243,14.3118049 39.8935236,14.1867136 38.6838075,14.3463129 C38.0272269,14.4311449 37.3318548,14.6022469 36.9051492,14.7819758" id="Shape" fill="#6A6A6A" fill-rule="nonzero" transform="translate(39.601153, 15.304676) scale(-1, 1) rotate(-180.000000) translate(-39.601153, -15.304676) "></path>
                    <path d="M71.2700319,16.0869488 C70.3605916,16.943882 68.920999,16.8432482 67.9885639,16.8461238 C67.9856948,16.8331833 67.998621,16.8288555 67.9914417,16.8130537 C68.6609528,15.8525678 70.4424817,15.766298 71.2700319,16.0869488 M67.0963657,17.3508027 C67.5489293,17.4528887 68.2615449,17.498885 68.9238724,17.4672527 C70.1436427,17.4111916 71.7585165,16.9970961 72.32315,15.9431512 C71.6852467,15.3737843 70.6939104,15.2098715 69.67815,15.3320728 C68.3822293,15.4945622 67.1452141,16.2925587 67.0963657,17.3508027" id="Shape" fill="#6A6A6A" fill-rule="nonzero" transform="translate(69.709758, 16.385565) scale(-1, 1) rotate(-180.000000) translate(-69.709758, -16.385565) "></path>
                    <path d="M62.9505688,15.1438716 C63.99794,14.4608873 65.3958649,14.8117182 66.3153651,14.9727553 C66.3153651,14.9857102 66.3024375,14.9885858 66.3067448,15.004402 C65.4791946,15.8325929 63.7091566,15.6039633 62.9505688,15.1438716 M67.2822771,14.6319892 C66.8555715,14.4522603 66.1602038,14.2811583 65.5036217,14.1963406 C64.2939056,14.0367269 62.6301833,14.1618327 61.8902744,15.1007367 C62.417546,15.7736418 63.364344,16.1086422 64.387288,16.1661699 C65.6903923,16.2337336 67.0480962,15.6643666 67.2822771,14.6319892" id="Shape" fill="#6A6A6A" fill-rule="nonzero" transform="translate(64.586276, 15.154700) scale(-1, 1) rotate(-180.000000) translate(-64.586276, -15.154700) "></path>
                    <path d="M53.458592,43.0275551 C54.5505029,43.8198003 55.9153861,46.1649036 55.244434,47.8140964 C55.220014,47.8198477 55.2243199,47.8385395 55.2056425,47.845743 C54.4384388,46.6523285 53.1195263,44.8996118 53.458592,43.0275551 M55.3004703,49.4029002 C56.6078848,48.4654484 56.6035746,46.2252925 55.7372329,44.43663 C55.0533518,43.0376199 54.0246637,41.9074843 52.7704036,41.5652804 C51.8925682,43.1583978 52.7014454,45.5624521 53.639623,47.1670865 C54.1467805,48.0369603 54.7961776,48.909724 55.3004703,49.4029002" id="Shape" fill="#6A6A6A" fill-rule="nonzero" transform="translate(54.367912, 45.484090) scale(-1, 1) rotate(-180.000000) translate(-54.367912, -45.484090) "></path>
                    <path d="M50.9342808,44.4800002 C50.9917467,44.4066852 51.076516,44.262902 51.1138707,44.3218531 C50.9472113,46.5504776 50.4716572,48.4182352 49.3740038,49.5742518 C49.352453,47.4088631 50.0104704,45.6274042 50.9342808,44.4800002 M52.0261874,41.8444693 C51.9414209,41.775439 51.7948756,41.9594958 51.6928685,42.0400144 C50.1067306,43.3196845 48.6096692,45.6532851 48.3999082,48.4527288 C48.329509,49.4434091 48.4846746,50.639685 48.7806388,51.3413324 C51.491725,50.2054598 52.4557664,45.7711873 52.0261874,41.8444693" id="Shape" fill="#6A6A6A" fill-rule="nonzero" transform="translate(50.253667, 46.585307) scale(-1, 1) rotate(-180.000000) translate(-50.253667, -46.585307) "></path>
                    <path d="M51.087004,48.5927483 C50.9936173,51.067242 50.0295787,52.8055804 48.2739079,53.3174484 C48.5511976,50.9033292 49.8284381,49.7616982 51.087004,48.5927483 M48.1977618,59.1521689 C48.1948884,59.1737363 48.1704641,59.1651094 48.1776477,59.1291779 C48.3428704,57.5590515 48.6244674,56.0967768 49.2408199,55.1204892 C49.4405239,54.8012906 49.6775854,54.4950325 49.9965342,54.3469358 C50.0051545,56.4102241 49.3672512,58.2966591 48.1977618,59.1521689 M50.4505375,52.8961638 C51.5970393,51.7746551 52.2521862,48.8946929 51.7766292,46.9881139 C51.4821018,47.1304592 51.2335494,47.3820884 50.9634462,47.593441 C50.1646303,48.2232184 49.3931121,48.9435706 48.7537721,49.8005196 C47.9880008,50.8228107 47.1690709,52.7380023 47.7653093,54.3598907 C48.2652876,54.4360814 48.493726,54.1744104 48.8615261,54.089564 C47.8213414,55.5734061 47.1633269,58.3513111 47.281135,60.7697294 C47.2983756,60.7754807 47.301249,60.763978 47.3026886,60.7524898 C48.6460182,60.3426934 49.562645,59.2125722 50.1675066,57.7804919 C50.7637422,56.3627756 51.0237884,54.1902122 50.4505375,52.8961638" id="Shape" fill="#6A6A6A" fill-rule="nonzero" transform="translate(49.600364, 53.879687) scale(-1, 1) rotate(-180.000000) translate(-49.600364, -53.879687) "></path>
                    <path d="M55.8049024,53.5874128 C54.3581262,53.0511016 53.3509861,50.5722944 53.6440739,48.569395 C54.5290958,49.9152054 55.8307591,51.2883201 55.8451306,53.560094 C55.8465673,53.5730345 55.8465673,53.5859893 55.8278899,53.5831137 L55.8049024,53.5874128 Z M54.4658759,54.8656594 C55.2905541,56.0288508 56.7100312,57.5198821 56.4672271,59.4120828 C56.4700991,59.4235711 56.4700991,59.4379494 56.4456792,59.4379494 C55.5304862,58.4400943 54.286286,56.8052798 54.4658759,54.8656594 M56.9557145,60.9419212 L56.9988117,60.9333086 C57.4125912,60.4214262 57.6424662,59.8017208 57.5519529,58.9821568 C57.3393142,57.0468355 56.2387887,55.6952739 55.4327878,54.5493221 C56.0362142,54.4745549 56.3465455,54.8296993 56.9571483,54.7477572 C56.9672053,50.9331901 54.7848275,48.1797427 52.7777308,46.4658417 C52.6067627,47.5096988 52.487515,48.5046854 52.5837781,49.6103851 C52.6326265,50.2286383 52.7446906,50.8684877 52.9544516,51.3947197 C53.1469677,51.8706419 53.4788541,52.2746726 53.6210893,52.7808037 C53.9314206,53.8663521 53.3883365,54.8138975 53.5018416,55.8433705 C53.632583,57.0612138 54.1900301,58.1280849 54.8049416,58.9404741 C55.4227308,59.7586002 56.1583325,60.3926696 56.9557145,60.9419212" id="Shape" fill="#6A6A6A" fill-rule="nonzero" transform="translate(55.060479, 53.703881) scale(-1, 1) rotate(-180.000000) translate(-55.060479, -53.703881) "></path>
                    <path d="M52.235661,37.6550975 C53.0330401,39.1892781 53.9381732,42.3295023 52.7873612,43.8104688 C51.8333796,42.4200857 51.2471982,39.1116209 52.235661,37.6550975 M52.5388088,45.4841047 C54.1306936,44.7953834 54.6507859,43.1533797 54.4812531,41.1634209 C54.2743655,38.798188 53.2715326,36.8786828 52.3161173,35.4393991 C49.6869212,37.1216764 50.2960901,43.5861527 52.5388088,45.4841047" id="Shape" fill="#6A6A6A" fill-rule="nonzero" transform="translate(52.549568, 40.461752) scale(-1, 1) rotate(-180.000000) translate(-52.549568, -40.461752) "></path>
                    <path d="M57.7365713,70.2024422 C58.3557973,44.6665537 60.4519705,23.7317118 63.8325707,23.7317118" id="Path" stroke="#6A6A6A" stroke-width="1.626626" stroke-linecap="round" transform="translate(60.784571, 46.967077) scale(-1, 1) rotate(-180.000000) translate(-60.784571, -46.967077) "></path>
                    <path d="M47.0001127,70.2015708 C46.3808868,44.6656824 44.8522176,23.7596057 41.4716188,23.7596057" id="Path" stroke="#6A6A6A" stroke-width="1.626626" stroke-linecap="round" transform="translate(44.235866, 46.980588) scale(-1, 1) rotate(-180.000000) translate(-44.235866, -46.980588) "></path>
                    <path d="M41.2924585,72.7159011 C41.9088125,71.5038091 46.5120592,70.2399552 52.3480153,70.2399552" id="Path" stroke="#6A6A6A" stroke-width="1.4692966" stroke-linecap="round" transform="translate(46.820237, 71.477928) scale(-1, 1) rotate(-180.000000) translate(-46.820237, -71.477928) "></path>
                    <path d="M63.8327144,72.7023855 C63.220672,71.4529027 58.2050855,70.2019964 52.3691322,70.2019964" id="Path" stroke="#6A6A6A" stroke-width="1.4692966" stroke-linecap="round" transform="translate(58.100923, 71.452191) scale(-1, 1) rotate(-180.000000) translate(-58.100923, -71.452191) "></path>
                    <path d="M47.0001127,23.3862578 C47.0001127,23.4020739 51.4941702,24.2000704 57.1476601,23.4135766" id="Path" stroke="#6A6A6A" stroke-width="1.6826246" stroke-linecap="round" transform="translate(52.073886, 23.572932) scale(-1, 1) rotate(-180.000000) translate(-52.073886, -23.572932) "></path>
                    <path d="M46.7211019,83.6032547 C48.3460312,83.9541 43.6508287,82.9749367 42.2600874,82.1366665 C40.8679066,81.2984251 39.8636413,80.2991178 38.8464441,79.0323882 C37.6065526,77.4867336 35.9744411,75.981324 35.0865486,74.2099011 C33.9544139,71.9496443 33.1196816,69.4866388 31.8927234,67.2766917 C31.0421828,65.7482624 29.9301621,64.3852125 28.8612431,63.0020041 C27.1414902,60.7748031 25.5223063,58.4699734 23.9893313,56.109054 C22.1488912,53.2736502 20.3874735,50.2096311 20.1734023,46.8350405 C19.9607693,43.4848858 21.305537,40.2296351 22.9462703,37.3036407 C23.9361684,35.5408592 25.0611209,33.7939082 25.4404148,31.8068107 C25.8211439,29.8082305 25.3786373,27.6644323 24.2378808,25.9807172 C24.0554161,25.7118499 23.8470946,25.4271664 23.8528401,25.1022165 C23.8643338,24.3717923 24.8226255,24.1259288 25.5524774,24.0971636 C28.8698648,23.9677674 32.1886847,23.839786 35.5075059,23.7103955 C36.8307271,26.0598123 38.1984824,28.632093 37.8263707,31.3035768 C37.6439059,32.6048072 37.0591626,33.8082722 36.4816044,34.9858562 C35.4787701,37.0304671 34.4773797,39.0736171 33.475985,41.1167844 C32.555048,42.9945924 31.6125632,44.9730342 31.705947,47.0607728 C31.7792211,48.6970252 32.4903986,50.2427013 33.3869084,51.6115025 C35.6425575,55.0522478 39.1165459,57.6475194 40.90957,61.3485122 C42.3074977,64.232788 43.7959402,69.1142405 46.4208275,70.5017336" id="Path" stroke="#6A6A6A" stroke-width="1.626626" transform="translate(33.604930, 53.693436) scale(-1, 1) rotate(-180.000000) translate(-33.604930, -53.693436) "></path>
                    <path d="M56.7147767,83.3588803 C58.1716099,83.6939094 60.6398934,82.9749936 62.0320743,82.1381757 C63.4228184,81.2999055 64.65265,80.4472858 65.6698472,79.1805418 C66.9097358,77.6363251 68.0892823,76.0273915 68.9771747,74.2559831 C70.1093123,71.9971497 70.7500862,69.5082633 71.9770443,67.2983162 C72.8261453,65.7698868 73.939607,64.4068225 75.0085217,63.0236286 C76.7282746,60.795004 78.3474571,58.4915979 79.8804364,56.1306784 C81.720878,53.2938224 83.4822914,50.2312556 83.6963668,46.8566591 C83.9089941,43.5065174 82.5642278,40.2512581 80.9220621,37.3252795 C79.933595,35.5610602 78.8072072,33.8140948 78.4293544,31.8284351 C78.0486195,29.8298492 78.491129,27.686051 79.631884,26.002356 C79.8143473,25.7334728 80.0226716,25.4487908 80.0169247,25.1238409 C80.0054353,24.3934225 79.0471393,24.1475533 78.317286,24.1187822 C74.9984676,23.9893918 71.6810802,23.8599869 68.3622589,23.7320142 C67.0390406,26.0814367 65.6712839,28.6537174 66.0433942,31.3252084 C66.2258575,32.6249937 66.8106022,33.8284731 67.3881633,35.007495 C68.3895566,37.0520857 69.3923865,39.0952358 70.3937798,41.1384088 C71.3132801,43.0162168 72.2557678,44.994673 72.1638207,47.0824044 C72.0905451,48.7186568 71.3793691,50.2643257 70.4814197,51.6331269 C68.2272073,55.07242 64.7532204,57.6691438 62.9587581,61.3701366 C61.5622671,64.2544124 61.1283779,67.8533191 58.5595241,69.7670586" id="Path" stroke="#6A6A6A" stroke-width="1.626626" transform="translate(70.216667, 53.587496) scale(-1, 1) rotate(-180.000000) translate(-70.216667, -53.587496) "></path>
                    <path d="M43.3686614,14.5113294 C46.3153724,14.9484302 48.7247504,15.0634567 52.2547694,15.0634567 C55.6569203,15.0634567 58.0691718,14.9441023 60.9354265,14.5357725" id="Path" stroke="#6A6A6A" stroke-width="0.5" stroke-linecap="round" transform="translate(52.152044, 14.787393) scale(-1, 1) rotate(-180.000000) translate(-52.152044, -14.787393) "></path>
                    <polygon id="Path" stroke="#6A6A6A" stroke-width="0.813313" transform="translate(65.663812, 60.264999) scale(-1, 1) rotate(-180.000000) translate(-65.663812, -60.264999) " points="60.4348736 61.4526476 59.6963999 65.5360892 59.6963999 65.5360892 71.6312231 57.587742 71.6312231 57.587742 70.5163276 54.9939083 70.5163276 54.9939083"></polygon>
                    <polygon id="Path" stroke="#6A6A6A" stroke-width="0.6773164" transform="translate(87.668173, 74.950720) scale(-1, 1) rotate(-180.000000) translate(-87.668173, -74.950720) " points="80.3617373 78.057152 81.4694478 80.4065746 81.4694478 80.4065746 94.9746079 71.4129324 94.9746079 71.4129324 93.7246623 69.4948651 93.7246623 69.4948651"></polygon>
                    <polygon id="Path" stroke="#6A6A6A" stroke-width="0.813313" transform="translate(38.669295, 60.839700) scale(-1, 1) rotate(-180.000000) translate(-38.669295, -60.839700) " points="44.7408718 62.4860172 44.9721807 66.268952 44.9721807 66.268952 32.3664097 57.8734535 32.3664097 57.8734535 33.4755555 55.4104481 33.4755555 55.4104481"></polygon>
                    <polygon id="Path" stroke="#6A6A6A" stroke-width="0.6773164" transform="translate(16.639938, 75.636281) scale(-1, 1) rotate(-180.000000) translate(-16.639938, -75.636281) " points="10.5712363 70.2019964 9.32129125 72.1186259 9.32129125 72.1186259 22.761797 81.0705652 22.761797 81.0705652 23.9585855 78.7786617 23.9585855 78.7786617"></polygon>
                    <polygon id="Path" stroke="#6A6A6A" stroke-width="1.0839729" transform="translate(61.113297, 47.015237) scale(-1, 1) rotate(-180.000000) translate(-61.113297, -47.015237) " points="59.0257394 44.0022611 58.7039187 47.7650807 58.7039187 47.7650807 62.1003184 50.0282132 62.1003184 50.0282132 63.5226747 46.8836756 63.5226747 46.8836756"></polygon>
                    <polygon id="Path" stroke="#6A6A6A" stroke-width="1.0839729" transform="translate(43.293234, 46.429608) scale(-1, 1) rotate(-180.000000) translate(-43.293234, -46.429608) " points="40.7085758 46.4231381 42.1294911 49.5633622 42.1294911 49.5633622 45.8778914 47.0672867 45.8778914 47.0672867 45.6939913 43.2958545 45.6939913 43.2958545"></polygon>
                    <path d="M33.1027283,27.2457721 L31.2953356,24.3557307 L31.2953356,24.3557307 L27.5340048,26.7137745 L27.5340048,26.7137745 L26.0642411,26.9898381 C25.8631004,27.0286596 25.6691433,27.0976755 25.4909901,27.1983237 L25.4909901,27.1983237 L20.7857349,29.8324311 L20.7857349,29.8324311 L13.3866327,29.6066916 L13.3866327,29.6066916 L12.241566,30.2609049 C11.7286573,30.5527847 11.4829783,31.1595496 11.6496377,31.7260553 L11.6496377,31.7260553 L12.5892521,34.9439223 C12.7674053,35.5535629 12.6280435,36.2135276 12.2157051,36.6980768 L12.2157051,36.6980768 L8.96584779,40.5241466" id="Path" stroke="#6A6A6A" stroke-width="1.0839729" stroke-linecap="round" transform="translate(21.034288, 32.439939) scale(-1, 1) rotate(-180.000000) translate(-21.034288, -32.439939) "></path>
                    <path d="M31.2143046,22.9454242 L33.1021536,25.7837037 L33.1021536,25.7837037 L29.4069133,28.2438335 L29.4069133,28.2438335 L28.549192,29.4702895 C28.4328163,29.6385301 28.2891458,29.7851889 28.1253598,29.9074046 L28.1253598,29.9074046 L23.7893414,33.113769 L23.7893414,33.113769 L20.9489462,39.956395 L20.9489462,39.956395 L19.8829013,40.7314006 C19.4059113,41.0793558 18.752204,41.0534605 18.3053844,40.6695738 L18.3053844,40.6695738 L15.7609547,38.4869455 C15.2782171,38.07285 14.6201983,37.9290669 14.0095926,38.1059202 L14.0095926,38.1059202 L9.18652786,39.4948655" id="Path" stroke="#6A6A6A" stroke-width="1.0839729" stroke-linecap="round" transform="translate(21.144341, 31.960669) scale(-1, 1) rotate(-180.000000) translate(-21.144341, -31.960669) "></path>
                    <path d="M70.8384444,27.2457721 L72.6458371,24.3557307 L72.6458371,24.3557307 L76.4071678,26.7137745 L76.4071678,26.7137745 L77.8769373,26.9898381 C78.0780765,27.0286596 78.2720293,27.0976755 78.4501854,27.1983237 L78.4501854,27.1983237 L83.1554377,29.8324311 L83.1554377,29.8324311 L90.5545414,29.6066916 L90.5545414,29.6066916 L91.6996066,30.2609049 C92.2125153,30.5527847 92.4581943,31.1595496 92.2915349,31.7260553 L92.2915349,31.7260553 L91.3519206,34.9439223 C91.1737674,35.5535629 91.3131291,36.2135276 91.7254733,36.6980768 L91.7254733,36.6980768 L94.9753263,40.5241466" id="Path" stroke="#6A6A6A" stroke-width="1.0839729" stroke-linecap="round" transform="translate(82.906885, 32.439939) scale(-1, 1) rotate(-180.000000) translate(-82.906885, -32.439939) "></path>
                    <path d="M72.7270117,22.9454242 L70.8391627,25.7837037 L70.8391627,25.7837037 L74.5344044,28.2438335 L74.5344044,28.2438335 L75.3921258,29.4702895 C75.5085,29.6385301 75.6521719,29.7851889 75.8159608,29.9074046 L75.8159608,29.9074046 L80.1519763,33.113769 L80.1519763,33.113769 L82.9923701,39.956395 L82.9923701,39.956395 L84.0584157,40.7314006 C84.5354108,41.0793558 85.1891137,41.0534605 85.6359334,40.6695738 L85.6359334,40.6695738 L88.180363,38.4869455 C88.6631007,38.07285 89.321118,37.9290669 89.9317237,38.1059202 L89.9317237,38.1059202 L94.7547899,39.4948655" id="Path" stroke="#6A6A6A" stroke-width="1.0839729" stroke-linecap="round" transform="translate(82.796976, 31.960669) scale(-1, 1) rotate(-180.000000) translate(-82.796976, -31.960669) "></path>
                    <path d="M104.011284,52.0451803 C104.011284,23.301504 80.7278062,2.04328154e-14 52.0063578,2.04328154e-14 C23.2834668,2.04328154e-14 -1.02085036e-14,23.301504 -1.02085036e-14,52.0451803 C-1.02085036e-14,80.788871 23.2834668,104.090384 52.0063578,104.090384 C80.7278062,104.090384 104.011284,80.788871 104.011284,52.0451803 Z" id="Path" stroke="#6A6A6A" stroke-width="2.7105989" transform="translate(52.005642, 52.045192) scale(-1, 1) rotate(-180.000000) translate(-52.005642, -52.045192) "></path>
                    <path d="M11.4199064,26.8026325 C6.72470957,34.2146541 4.00787292,43.0055563 4.00787292,52.4305422 C4.00787292,61.6125345 6.5867831,70.1906376 11.0592898,77.4804436 C11.0995194,77.545146 11.1383094,77.6098484 11.1785375,77.673113" id="Path" stroke="#6A6A6A" stroke-width="1.0453072" transform="translate(7.713890, 52.237873) scale(-1, 1) rotate(-180.000000) translate(-7.713890, -52.237873) "></path>
                    <path d="M91.5805026,99.9816505 C82.9673712,87.2683295 68.4119665,78.9145368 51.9069397,78.9145368 C35.7452844,78.9145368 21.4527993,86.9246949 12.7778912,99.1951566 C12.7606484,99.2195998 12.741971,99.2454736 12.724729,99.2699095" id="Path" stroke="#6A6A6A" stroke-width="1.0453072" transform="translate(52.152616, 89.448094) scale(-1, 1) rotate(-180.000000) translate(-52.152616, -89.448094) "></path>
                    <path d="M92.6431001,77.0341406 C92.6919413,76.9536221 92.7422337,76.8745413 92.791075,76.7940084 C97.2420309,69.5171573 99.8065818,60.9606217 99.8065818,51.8045103 C99.8065818,42.7030365 97.2722092,34.1953872 92.8715312,26.9472783 C92.8456775,26.9027055 92.8183798,26.8581256 92.791075,26.8149978" id="Path" stroke="#6A6A6A" stroke-width="1.0453072" transform="translate(96.224841, 51.924569) scale(-1, 1) rotate(-180.000000) translate(-96.224841, -51.924569) "></path>
                    <path d="M12.2987475,4.22217799 C20.9204992,16.880847 35.4442932,25.1929656 51.9062213,25.1929656 C68.4184346,25.1929656 82.9795805,16.8319751 91.591278,4.10860368" id="Path" stroke="#6A6A6A" stroke-width="1.0453072" transform="translate(51.945013, 14.650785) scale(-1, 1) rotate(-180.000000) translate(-51.945013, -14.650785) "></path>
                    <line x1="31.7254893" y1="15.1008403" x2="31.7254893" y2="23.2806641" id="Path" stroke="#6A6A6A" stroke-width="1.3492996" transform="translate(31.725489, 19.190752) scale(-1, 1) rotate(-180.000000) translate(-31.725489, -19.190752) "></line>
                    <path d="M39.9961068,18.6317377 C34.7463364,19.5059392 31.3944706,21.3319853 31.7249146,23.2816705 C32.1947218,26.0451972 40.9443414,27.93018 52.2427052,27.93018 C63.5424971,27.93018 73.0492678,26.0106892 72.9835213,23.2816705 C72.9314569,21.1134205 70.1844498,19.4771682 64.8096834,18.6317377" id="Path" stroke="#6A6A6A" stroke-width="1.3492996" transform="translate(52.343016, 23.280959) scale(-1, 1) rotate(-180.000000) translate(-52.343016, -23.280959) "></path>
                    <path d="M72.9323189,11.2556474 C72.9323189,13.1564607 63.5735303,15.1176629 52.4260263,15.202495" id="Path" stroke="#6A6A6A" stroke-width="1.3492996" transform="translate(62.679173, 13.229071) scale(-1, 1) rotate(-180.000000) translate(-62.679173, -13.229071) "></path>
                    <line x1="72.9323189" y1="15.1702876" x2="72.9323189" y2="22.8166758" id="Path" stroke="#6A6A6A" stroke-width="1.3492996" transform="translate(72.932319, 18.993482) scale(-1, 1) rotate(-180.000000) translate(-72.932319, -18.993482) "></line>
                    <path d="M31.7254893,11.2538561 C31.7254893,13.1546694 41.5411517,15.2826601 52.6268768,15.2165199" id="Path" stroke="#6A6A6A" stroke-width="1.3492996" transform="translate(42.176183, 13.235940) scale(-1, 1) rotate(-180.000000) translate(-42.176183, -13.235940) "></path>
                    <path d="M133.486152,50.8638809 C133.486152,47.8429968 133.486152,44.5532382 136.34235,42.1276163 C137.79631,40.8867677 140.276087,40.0772685 142.268817,40.0772685 C144.262983,40.0772685 146.74276,40.8867677 148.19672,42.1276163 C151.052918,44.5532382 151.052918,47.8429968 151.052918,50.8638809 L151.052918,50.8638809 L151.052918,72.920217 L151.052918,72.920217 L155.039813,72.920217 L155.039813,72.920217 L155.039813,49.7840694 C155.039813,46.7646231 154.716551,43.8530142 152.776981,41.1556422 C150.621902,38.1908335 146.849077,36.3029607 142.268817,36.3029607 C137.688556,36.3029607 133.917168,38.1908335 131.762089,41.1556422 C129.822519,43.8530142 129.499257,46.7646231 129.499257,49.7840694 L129.499257,49.7840694 L129.499257,72.920217 L129.499257,72.920217 L133.486152,72.920217 L133.486152,50.8638809 Z" id="Path" fill="#6A6A6A" fill-rule="nonzero" transform="translate(142.269535, 54.611589) scale(-1, 1) rotate(-180.000000) translate(-142.269535, -54.611589) "></path>
                    <polygon id="Path" fill="#6A6A6A" fill-rule="nonzero" transform="translate(180.306955, 54.342434) scale(-1, 1) rotate(-180.000000) translate(-180.306955, -54.342434) " points="164.303347 36.4119627 164.303347 73.8904657 164.303347 73.8904657 192.323681 44.5012031 192.323681 44.5012031 192.323681 72.3821948 192.323681 72.3821948 196.310562 72.3821948 196.310562 72.3821948 196.310562 34.7944022 196.310562 34.7944022 168.290243 64.1836793 168.290243 64.1836793 168.290243 36.4119627"></polygon>
                    <polygon id="Path" fill="#6A6A6A" fill-rule="nonzero" transform="translate(207.566560, 54.288221) scale(-1, 1) rotate(-180.000000) translate(-207.566560, -54.288221) " points="209.560001 36.3031045 205.57312 36.3031045 205.57312 36.3031045 205.57312 72.2733366 205.57312 72.2733366 209.560001 72.2733366"></polygon>
                    <polygon id="Path" fill="#6A6A6A" fill-rule="nonzero" transform="translate(229.171354, 55.366738) scale(-1, 1) rotate(-180.000000) translate(-229.171354, -55.366738) " points="219.041054 74.4302277 229.171361 46.9805797 229.171361 46.9805797 239.303105 74.4302277 239.303105 74.4302277 243.721002 74.4302277 243.721002 74.4302277 229.171361 36.3032483 229.171361 36.3032483 214.621706 74.4302277"></polygon>
                    <polygon id="Path" fill="#6A6A6A" fill-rule="nonzero" transform="translate(258.103581, 54.288371) scale(-1, 1) rotate(-180.000000) translate(-258.103581, -54.288371) " points="267.425733 68.4977491 252.768324 68.4977491 252.768324 68.4977491 252.768324 57.8204119 252.768324 57.8204119 266.994717 57.8204119 266.994717 57.8204119 266.994717 54.0446519 266.994717 54.0446519 252.768324 54.0446519 252.768324 54.0446519 252.768324 40.0775561 252.768324 40.0775561 267.425733 40.0775561 267.425733 40.0775561 267.425733 36.3032483 267.425733 36.3032483 248.781428 36.3032483 248.781428 36.3032483 248.781428 72.2734947 248.781428 72.2734947 267.425733 72.2734947"></polygon>
                    <path d="M280.515839,72.273351 C282.939584,72.273351 286.55006,72.1123138 289.243908,70.2776407 C291.345814,68.8757694 293.179082,66.1237598 293.179082,62.2962521 C293.179082,56.7950942 289.568592,52.7519263 284.124863,52.3737766 L284.124863,52.3737766 L295.549654,36.3031189 L295.549654,36.3031189 L290.699305,36.3031189 L290.699305,36.3031189 L279.760125,52.0488266 L279.760125,52.0488266 L278.737167,52.0488266 L278.737167,52.0488266 L278.737167,36.3031189 L278.737167,36.3031189 L274.750285,36.3031189 L274.750285,36.3031189 L274.750285,72.273351 L280.515839,72.273351 Z M278.737167,55.6088976 L281.270102,55.6088976 C286.226784,55.6088976 289.190735,57.9813053 289.190735,62.1884148 C289.190735,64.184125 288.598807,66.1798352 286.335974,67.4738836 C284.718228,68.3897679 282.886411,68.4976197 281.162363,68.4976197 L281.162363,68.4976197 L278.737167,68.4976197 L278.737167,55.6088976 Z" id="Shape" fill="#6A6A6A" fill-rule="nonzero" transform="translate(285.149970, 54.288235) scale(-1, 1) rotate(-180.000000) translate(-285.149970, -54.288235) "></path>
                    <path d="M317.854001,65.2097015 C317.369826,66.1802378 316.560968,67.2600349 315.752095,67.9056356 C315.052413,68.4448225 313.757929,69.1464843 311.71059,69.1464843 C308.15471,69.1464843 305.674932,66.9350993 305.674932,63.592141 C305.674932,62.1888174 306.05279,61.380756 307.022575,60.4634195 C308.100114,59.3850458 309.447771,58.7926592 310.795414,58.1988204 L310.795414,58.1988204 L314.243526,56.6891117 C316.345446,55.773213 318.285031,54.8026623 319.793586,53.2915157 C321.625389,51.4597039 322.379666,49.356165 322.379666,46.7666361 C322.379666,40.1339119 317.476144,35.7111492 311.010907,35.7111492 C308.638884,35.7111492 305.674932,36.1971305 303.196606,38.624196 C301.419385,40.3495938 300.341845,42.8312825 299.856234,44.9880298 L299.856234,44.9880298 L303.735376,46.0664035 C304.005494,44.1785393 304.867496,42.5595409 305.891877,41.4811673 C307.453605,39.9182444 309.232249,39.4854571 311.06408,39.4854571 C315.96904,39.4854571 318.285031,42.9923282 318.285031,46.6055903 C318.285031,48.2231508 317.79942,49.6250452 316.507809,50.8112563 C315.483429,51.7817926 314.082613,52.4288168 312.196201,53.2915157 L312.196201,53.2915157 L308.963583,54.8026623 C307.561345,55.4497009 305.784123,56.2031246 304.167814,57.7674853 C302.604678,59.2771941 301.688051,60.9494066 301.688051,63.6453407 C301.688051,69.1996697 305.945036,72.9207921 311.765185,72.9207921 C313.974873,72.9207921 315.752095,72.4894427 317.530739,71.3032316 C318.986135,70.3326953 320.224587,68.8775954 321.03346,67.313249 L317.854001,65.2097015 Z" id="Path" fill="#6A6A6A" fill-rule="nonzero" transform="translate(311.117950, 54.315971) scale(-1, 1) rotate(-180.000000) translate(-311.117950, -54.315971) "></path>
                    <polygon id="Path" fill="#6A6A6A" fill-rule="nonzero" transform="translate(331.697652, 54.288221) scale(-1, 1) rotate(-180.000000) translate(-331.697652, -54.288221) " points="333.6911 36.3031045 329.704204 36.3031045 329.704204 36.3031045 329.704204 72.2733366 329.704204 72.2733366 333.6911 72.2733366"></polygon>
                    <polygon id="Path" fill="#6A6A6A" fill-rule="nonzero" transform="translate(349.800313, 54.288371) scale(-1, 1) rotate(-180.000000) translate(-349.800313, -54.288371) " points="351.79448 68.4977491 351.79448 36.3032483 351.79448 36.3032483 347.807598 36.3032483 347.807598 36.3032483 347.807598 68.4977491 347.807598 68.4977491 339.076642 68.4977491 339.076642 68.4977491 339.076642 72.2734947 339.076642 72.2734947 360.523985 72.2734947 360.523985 72.2734947 360.523985 68.4977491"></polygon>
                    <path d="M383.313986,34.8478752 L368.010039,34.8478752 L368.010039,34.8478752 L363.699882,24.7097248 L363.699882,24.7097248 L359.280519,24.7097248 L359.280519,24.7097248 L375.824326,62.4053692 L375.824326,62.4053692 L391.935695,24.7097248 L391.935695,24.7097248 L387.516346,24.7097248 L383.313986,34.8478752 Z M367.902256,69.847571 L371.673644,72.2731928 L371.673644,72.2731928 L378.463608,65.2623405 L378.463608,65.2623405 L376.147616,63.5369282 L367.902256,69.847571 Z M381.750792,38.6236208 L375.715164,53.0220804 L375.715164,53.0220804 L369.573161,38.6236208 L381.750792,38.6236208 Z" id="Shape" fill="#6A6A6A" fill-rule="nonzero" transform="translate(375.608107, 48.491459) scale(-1, 1) rotate(-180.000000) translate(-375.608107, -48.491459) "></path>
                    <path d="M409.54786,72.2729052 L416.875128,72.2729052 C420.485603,72.2729052 425.604633,71.8947555 430.131736,68.0658101 C433.418949,65.3152239 436.275147,60.7314313 436.275147,54.2597515 C436.275147,46.7096979 432.556917,42.6665156 429.969386,40.4551307 C426.682173,37.6513591 423.234047,36.3026731 416.821969,36.3026731 L416.821969,36.3026731 L409.54786,36.3026731 L409.54786,72.2729052 Z M413.534756,40.076981 L417.037477,40.076981 C419.893675,40.076981 423.827412,40.4019252 427.330133,43.3135398 C430.023982,45.5781159 432.17906,49.1367576 432.17906,54.2597515 C432.17906,62.8881786 426.143403,68.4971596 417.037477,68.4971596 L417.037477,68.4971596 L413.534756,68.4971596 L413.534756,40.076981 Z" id="Shape" fill="#6A6A6A" fill-rule="nonzero" transform="translate(422.911503, 54.287789) scale(-1, 1) rotate(-180.000000) translate(-422.911503, -54.287789) "></path>
                    <polygon id="Path" fill="#6A6A6A" fill-rule="nonzero" transform="translate(445.590690, 54.288221) scale(-1, 1) rotate(-180.000000) translate(-445.590690, -54.288221) " points="447.584138 36.3031045 443.597242 36.3031045 443.597242 36.3031045 443.597242 72.2733366 443.597242 72.2733366 447.584138 72.2733366"></polygon>
                    <path d="M475.922992,72.2730346 C479.532031,72.2730346 482.550578,71.8402617 484.974323,69.7381376 C487.615013,67.4735529 488.262973,64.291646 488.262973,62.0270613 C488.262973,56.955815 485.083514,51.9421036 476.892778,51.9421036 L476.892778,51.9421036 L473.390056,51.9421036 L473.390056,51.9421036 L473.390056,36.3028169 L473.390056,36.3028169 L469.403161,36.3028169 L469.403161,36.3028169 L469.403161,72.2730346 L475.922992,72.2730346 Z M473.390056,55.7164042 L476.67727,55.7164042 C481.41988,55.7164042 484.274641,58.0888263 484.274641,62.2412838 C484.274641,67.9581165 478.940103,68.4973033 476.354008,68.4973033 L476.354008,68.4973033 L473.390056,68.4973033 L473.390056,55.7164042 Z" id="Shape" fill="#6A6A6A" fill-rule="nonzero" transform="translate(478.833067, 54.287926) scale(-1, 1) rotate(-180.000000) translate(-478.833067, -54.287926) "></path>
                    <path d="M510.99891,44.7156988 L495.696414,44.7156988 L495.696414,44.7156988 L491.386257,34.5775484 L491.386257,34.5775484 L486.965501,34.5775484 L486.965501,34.5775484 L503.509293,72.2731928 L503.509293,72.2731928 L519.620691,34.5775484 L519.620691,34.5775484 L515.20275,34.5775484 L510.99891,44.7156988 Z M509.437196,48.4914444 L503.401568,62.889904 L503.401568,62.889904 L497.258157,48.4914444 L509.437196,48.4914444 Z" id="Shape" fill="#6A6A6A" fill-rule="nonzero" transform="translate(503.293096, 53.425371) scale(-1, 1) rotate(-180.000000) translate(-503.293096, -53.425371) "></path>
                    <polygon id="Path" fill="#6A6A6A" fill-rule="nonzero" transform="translate(532.227154, 55.366738) scale(-1, 1) rotate(-180.000000) translate(-532.227154, -55.366738) " points="522.096847 74.4302277 532.227154 46.9805797 532.227154 46.9805797 542.357461 74.4302277 542.357461 74.4302277 546.776809 74.4302277 546.776809 74.4302277 532.227154 36.3032483 532.227154 36.3032483 517.677499 74.4302277"></polygon>
                    <polygon id="Path" fill="#6A6A6A" fill-rule="nonzero" transform="translate(553.830238, 54.288221) scale(-1, 1) rotate(-180.000000) translate(-553.830238, -54.288221) " points="555.823686 36.3031045 551.83679 36.3031045 551.83679 36.3031045 551.83679 72.2733366 551.83679 72.2733366 555.823686 72.2733366"></polygon>
                    <path d="M584.918398,44.7156988 L569.615903,44.7156988 L569.615903,44.7156988 L565.305745,34.5775484 L565.305745,34.5775484 L560.88496,34.5775484 L560.88496,34.5775484 L577.428781,72.2731928 L577.428781,72.2731928 L593.540179,34.5775484 L593.540179,34.5775484 L589.122239,34.5775484 L584.918398,44.7156988 Z M583.356685,48.4914444 L577.321056,62.889904 L577.321056,62.889904 L571.177616,48.4914444 L583.356685,48.4914444 Z" id="Shape" fill="#6A6A6A" fill-rule="nonzero" transform="translate(577.212570, 53.425371) scale(-1, 1) rotate(-180.000000) translate(-577.212570, -53.425371) "></path>
                </g>
            </g>
        </g>
    </g>
</svg>