<svg xmlns="http://www.w3.org/2000/svg" viewBox="0 0 228 103" fill="none" class="mx-auto mb-4 w-32"><g clip-path="url(#a)"><path fill="none" d="M0 0h228v103H0z"></path><g clip-path="url(#b)"><path fill="#00044C" d="M115.913 49.11h22.747v9.149h-32.496V9.664h31.684v9.15h-21.935v30.295Zm-1.015-20.13h20.106v8.946h-20.106V28.98ZM160.189 58.259c-3.453 0-6.702-.61-10.155-1.627-3.047-1.017-5.89-2.44-7.515-4.066l3.453-8.337c1.625 1.627 3.859 2.847 6.499 3.66 2.437 1.017 5.077 1.627 7.921 1.627 2.031 0 3.656-.407 4.874-.61 1.219-.407 2.234-1.017 2.844-1.83.609-.61.812-1.627.812-2.44 0-1.22-.609-2.237-1.422-3.05-.812-.61-2.234-1.22-3.655-1.83-1.422-.61-3.047-1.016-5.078-1.22-1.625-.406-3.656-1.016-5.28-1.626-1.625-.61-3.453-1.627-5.078-2.44-1.422-1.017-2.843-2.44-3.656-4.067a13.52 13.52 0 0 1-1.421-6.1c0-2.846.609-5.286 2.031-7.32 1.421-2.032 3.452-4.066 5.889-5.286 2.844-1.22 6.093-2.236 10.155-2.236 2.844 0 5.281.407 8.124 1.22 2.438.61 5.078 1.83 7.109 3.05l-3.047 8.336c-2.031-1.22-3.859-2.237-5.89-2.847-2.031-.61-3.858-1.016-5.889-1.016s-3.656.406-4.875.61c-1.218.61-2.031 1.22-2.437 1.83-.609.61-.812 1.83-.812 2.846 0 1.22.609 2.237 1.421 3.05.813.61 2.031 1.22 3.656 1.83 1.625.61 3.047 1.017 5.078 1.22 1.624.407 3.655 1.017 5.28 1.627 1.625.61 3.453 1.626 4.875 2.44 1.421 1.016 2.843 2.236 3.655 4.066a13.507 13.507 0 0 1 1.422 6.1c0 2.846-.609 5.286-2.031 7.32-1.422 2.236-3.453 4.066-6.093 5.286-3.25 1.22-6.905 1.83-10.764 1.83ZM203.246 58.259c-3.25 0-6.296-.61-9.343-1.83-2.843-1.22-5.28-2.847-7.514-5.287-2.031-2.236-3.656-5.083-4.875-7.726a31.054 31.054 0 0 1-1.625-9.963c0-3.66.61-6.913 1.625-9.963 1.016-3.05 2.844-5.693 4.875-7.726 2.234-2.237 4.671-4.067 7.514-5.287 2.844-1.22 6.093-1.83 9.343-1.83 3.859 0 7.108.61 10.155 2.237 3.046 1.627 5.483 3.457 7.717 6.303l-6.296 6.507c-1.624-1.83-3.249-3.05-4.874-4.067-2.031-1.017-3.859-1.22-6.093-1.22-2.031 0-3.859.407-5.484 1.22-1.624.61-3.046 1.83-4.468 3.05-1.015 1.22-2.234 3.05-2.843 5.083a20.502 20.502 0 0 0-1.016 6.303c0 2.237.203 4.473 1.016 6.303.812 1.83 1.625 3.457 2.843 5.083 1.016 1.22 2.844 2.44 4.468 3.05 1.625.61 3.656 1.22 5.484 1.22 2.031 0 3.859-.407 5.89-1.22 2.031-.61 3.656-1.83 5.28-3.66l5.484 8.133c-2.437 1.83-4.874 3.457-7.921 4.677-3.249.406-6.296.61-9.342.61Zm7.921-7.523V32.64h9.139v19.722l-9.139-1.626Z"></path><path fill="#0C4F0B" d="M114.695 102.177c-2.641 0-4.875-.61-6.703-1.627-1.828-1.016-3.655-2.643-4.671-4.676-1.015-2.034-1.625-4.677-1.625-7.93V70.458h8.937v16.266c0 2.643.609 4.473 1.624 5.693 1.016 1.22 2.641 1.83 4.672 1.83 1.218 0 2.64-.203 3.655-1.017 1.016-.61 1.828-1.626 2.641-2.846.609-1.22 1.015-2.847 1.015-4.677V70.255h8.937v31.718h-8.531v-8.54l1.625 2.644c-1.015 2.033-2.64 3.66-4.671 4.88-2.437.61-4.468 1.22-6.905 1.22ZM155.111 102.177c-3.655 0-6.499-.814-9.139-2.034-2.64-1.22-4.671-3.456-6.296-5.693-1.625-2.44-2.031-5.286-2.031-8.133 0-2.846.812-5.693 2.031-8.133 1.218-2.44 3.452-4.27 5.687-5.693 2.64-1.22 5.28-2.033 8.327-2.033 3.046 0 5.686.61 8.124 1.83 2.437 1.22 4.468 3.05 5.686 5.49 1.219 2.44 2.031 5.286 2.031 8.54v2.44h-25.184V83.47h20.31l-3.453 1.626c0-1.626-.203-3.05-1.015-4.27-.61-1.22-1.625-2.033-2.641-2.846-1.015-.813-2.64-1.016-3.858-1.016-1.625 0-2.844.203-4.265 1.016-1.016.813-2.031 1.627-2.641 2.847a9.463 9.463 0 0 0-1.015 4.27v1.22c0 1.83.203 3.05 1.015 4.472.813 1.22 1.828 2.44 3.047 2.847 1.218.813 2.843 1.017 4.874 1.017 1.625 0 3.047-.204 4.265-.814 1.219-.61 2.437-1.22 3.453-2.44l4.671 5.287c-1.218 1.627-3.046 2.847-5.28 3.66-1.625 1.016-4.062 1.83-6.703 1.83ZM187.607 102.177c-2.64 0-5.28-.204-7.515-1.017-2.437-.813-4.468-1.22-5.686-2.44l2.843-6.303c1.625.813 3.047 1.627 4.874 2.033 1.828.407 3.859.814 5.687.814 2.031 0 3.656-.204 4.468-.814.813-.61 1.219-1.22 1.219-2.033s-.203-1.22-1.015-1.627c-.813-.406-1.625-.61-2.641-.813-1.015-.203-2.437-.203-3.656-.61-1.218-.203-2.64-.61-3.858-.813-1.219-.203-2.641-.813-3.656-1.627-1.016-.61-2.031-1.626-2.641-2.643-.812-1.017-1.015-2.643-1.015-4.473s.609-3.66 1.828-5.286c1.218-1.627 2.843-2.644 4.874-3.66 2.031-.813 4.672-1.22 7.515-1.22 2.031 0 4.265.203 6.499.813 2.031.61 3.859 1.017 5.484 2.033l-3.047 6.303c-1.625-.813-2.843-1.626-4.468-1.83-1.625-.203-2.843-.61-4.468-.61-2.031 0-3.656.204-4.468.814-1.016.61-1.219 1.22-1.219 2.033s.203 1.22 1.016 1.83c.812.61 1.624.813 2.64.813 1.015 0 2.437.204 3.656.61 1.218.204 2.64.61 3.859.814 1.218.203 2.64.813 3.655 1.626 1.016.61 2.031 1.627 2.641 2.643.609 1.017 1.015 2.644 1.015 4.473 0 1.83-.609 3.66-1.828 4.88-1.218 1.22-2.843 2.644-4.874 3.457-2.031 1.626-4.874 1.83-7.718 1.83ZM203.652 78.388v-6.71h21.528v6.71h-21.528Zm16.451 23.789c-3.656 0-6.499-1.017-8.53-2.847-2.031-1.83-3.047-4.676-3.047-8.336V63.748h9.14V90.79c0 1.22.203 2.44 1.015 3.05.813.814 1.625 1.017 2.641 1.017 1.624 0 2.64-.203 3.655-1.017l2.438 6.303c-.813.61-2.031 1.017-3.047 1.627-1.625.407-3.046.407-4.265.407ZM18.629 75.135c-7.515-9.353-10.561-21.756-8.327-33.549C13.145 23.49 29.393 9.664 47.469 9.054 72.653 7.834 92.557 30.2 88.698 55.21c-.813 5.693-2.843 10.98-5.89 15.86-.203.406 0 .406.203.812 2.234 2.034 3.86 4.27 5.687 6.71 14.014-18.502 12.186-45.951-3.859-62.624C73.262 3.564 54.984-2.129 38.533 1.937 16.8 6.615.553 27.15.755 49.313.553 61.715 5.224 73.915 13.551 83.064c.203.204.406.204.813.204 2.234-1.22 4.468-2.034 6.702-3.254.406-.203.812-.61 1.015-1.22"></path><path fill="#0C4F0B" d="M95.603 96.89c-9.545 6.1-22.34 6.507-32.495 1.627-8.937-4.27-13.608-12.81-15.436-22.162 0-.204-.203-.61.203-.814 3.656-2.033 7.515-4.27 11.577-5.286 8.327-2.033 15.232.407 21.122 6.303 2.843 2.846 4.671 6.1 6.093 9.76 2.234 4.27 4.874 7.93 8.936 10.572ZM78.95 92.417c-1.625-8.336-10.155-16.266-19.091-12.403-.27.136-.406.34-.406.61 2.234 8.54 11.373 12.81 19.497 11.793ZM52.75 98.11c-12.999.814-24.372-2.846-34.73-10.776 2.64-1.627 5.28-2.847 7.514-4.88.203-.203.406-.203.61 0 5.686 3.863 12.389 6.303 19.294 6.71.61 0 1.015.203 1.218.813 1.625 3.05 3.453 5.897 6.093 8.133 0-.135 0-.135 0 0Z"></path></g></g><defs><clipPath id="a"><path fill="none" d="M0 0h228v103H0z"></path></clipPath><clipPath id="b"><path fill="none" d="M0 0h228v103H0z"></path></clipPath></defs></svg>