<svg width="512" height="512" viewBox="0 0 512 512" fill="none" xmlns="http://www.w3.org/2000/svg">
<g clip-path="url(#clip0_45_2)">
<rect width="512" height="512" fill="#4C4AF3"/>
<path d="M108.863 296.995C112.137 310.726 111.103 323.269 105.759 334.622C100.416 345.976 91.2313 356.012 78.2067 364.731C66.7143 372.424 54.8292 376.491 42.5514 376.934C30.2735 377.376 18.4111 373.467 6.96416 365.206L-144.113 254.704C-148.555 251.383 -150.312 247.93 -149.383 244.345C-148.199 240.59 -145.308 237.174 -140.711 234.097C-136.37 231.19 -132.495 228.967 -129.088 227.427C-125.426 225.716 -121.075 226.692 -116.035 230.354L24.5359 333.447C31.1139 338.301 37.2162 340.511 42.843 340.078C48.2986 339.388 54.2188 336.906 60.6034 332.633C72.0957 324.94 76.1625 314.441 72.8037 301.136L37.2672 156.063C34.3378 143.952 34.7801 133.287 38.5943 124.068C42.2373 114.594 50.0603 105.839 62.0634 97.8044C82.4942 84.128 102.577 84.5715 122.311 99.135L242.507 187.537C249.085 192.392 255.188 194.602 260.814 194.168C266.27 193.479 272.19 190.997 278.575 186.723C290.067 179.03 294.134 168.531 290.775 155.227L249.039 -14.0253C247.4 -21.4455 249.773 -27.2925 256.158 -31.5664C258.456 -33.105 260.882 -34.729 263.436 -36.4386C266.245 -38.319 268.801 -39.4741 271.102 -39.9036C273.658 -40.504 275.919 -40.1657 277.883 -38.8885C279.848 -37.6113 281.304 -34.8831 282.253 -30.704L326.834 151.086C330.109 164.817 329.074 177.359 323.731 188.713C318.387 200.066 309.203 210.103 296.178 218.821C284.686 226.514 272.801 230.582 260.523 231.024C248.245 231.466 236.382 227.557 224.936 219.296L99.7422 127.573C93.5066 123.23 87.1964 123.196 80.8118 127.47C77.2364 129.863 74.5141 132.426 72.645 135.158C70.7759 137.891 70.4867 141.602 71.7775 146.293L108.863 296.995Z" fill="#E5F940"/>
<path d="M451.064 443.904C444.026 461.675 434.836 476.821 423.496 489.344C412.156 501.867 399.154 511.427 384.49 518.025C370.254 524.438 354.783 527.703 338.078 527.821C321.801 527.754 304.93 524.263 287.467 517.346C270.004 510.429 255.165 501.361 242.951 490.143C231.163 478.739 222.278 465.826 216.294 451.404C210.431 436.676 207.655 420.866 207.966 403.975C208.277 387.084 211.951 369.753 218.99 351.982C226.15 333.904 235.34 318.758 246.558 306.541C257.898 294.019 270.686 284.551 284.923 278.138C299.281 271.419 314.598 268.092 330.876 268.159C347.581 268.041 364.665 271.441 382.128 278.358C398.978 285.032 413.265 293.704 424.988 304.373C436.712 315.042 445.687 327.282 451.914 341.091L516.304 153.672C518.853 147.238 522.144 143.402 526.179 142.164C530.214 140.926 541.422 143.948 541.422 143.948C541.422 143.948 555.261 155.987 550.771 167.324L451.064 443.904ZM416.598 430.252C421.452 417.996 423.951 405.871 424.095 393.876C424.238 381.881 422.243 370.811 418.109 360.666C414.097 350.216 407.885 340.843 399.474 332.549C391.062 324.255 380.73 317.681 368.475 312.827C356.22 307.973 344.188 305.689 332.379 305.974C320.876 306.38 310.084 309.017 300.004 313.886C290.045 318.449 281.011 325.15 272.902 333.99C264.793 342.83 258.311 353.378 253.457 365.633C248.602 377.889 246.103 390.015 245.96 402.01C245.938 413.698 247.933 424.768 251.946 435.219C255.958 445.67 262.017 454.981 270.121 463.154C278.533 471.448 288.866 478.022 301.12 482.876C313.375 487.73 325.407 490.015 337.216 489.73C349.025 489.445 359.97 486.868 370.051 481.999C380.131 477.13 389.165 470.429 397.153 461.895C405.262 453.055 411.744 442.508 416.598 430.252Z" fill="#E5F940"/>
</g>
<defs>
<clipPath id="clip0_45_2">
<rect width="512" height="512" fill="white"/>
</clipPath>
</defs>
</svg>
